<svg preserveAspectRatio="xMidYMid meet" width="1em" height="1em" overflow="visible" style="display: block;" viewBox="0 0 62.9922 62.9922" fill="none" xmlns="http://www.w3.org/2000/svg">
<g id="Group">
<path id="Vector" d="M31.4961 43.625C28.5237 43.625 26.1055 46.0432 26.1055 49.0156C26.1055 51.988 28.5237 54.4062 31.4961 54.4062C34.4685 54.4062 36.8867 51.988 36.8867 49.0156C36.8867 46.0432 34.4685 43.625 31.4961 43.625ZM31.4961 51.7109C30.0099 51.7109 28.8008 50.5018 28.8008 49.0156C28.8008 47.5294 30.0099 46.3203 31.4961 46.3203C32.9823 46.3203 34.1914 47.5294 34.1914 49.0156C34.1914 50.5018 32.9823 51.7109 31.4961 51.7109Z" fill="var(--fill-0, white)" stroke="var(--stroke-0, white)"/>
<path id="Vector_2" d="M62.4922 26.1055C62.4922 21.6327 59.3621 17.8796 55.1781 16.915C54.9562 16.7603 57.2295 17.7663 20.2215 2.03741C18.3536 1.05618 16.2289 0.5 13.9766 0.5C6.54559 0.5 0.5 6.54559 0.5 13.9766C0.5 16.0583 0.987312 18.0776 1.8075 19.7638C1.81599 19.7816 19.2401 54.6371 19.3175 54.7822C21.4823 59.3362 26.1273 62.4922 31.4961 62.4922C36.7374 62.4922 41.2888 59.4845 43.5165 55.1047L59.0255 33.406C61.1401 31.6745 62.4922 29.0452 62.4922 26.1055ZM59.7969 26.1055C59.7969 29.821 56.7741 32.8438 53.0586 32.8438C49.3431 32.8438 46.3203 29.821 46.3203 26.1055C46.3203 22.39 49.3431 19.3672 53.0586 19.3672C56.7741 19.3672 59.7969 22.39 59.7969 26.1055ZM13.9766 3.19531C19.9213 3.19531 24.7578 8.03178 24.7578 13.9766C24.7578 19.9213 19.9213 24.7578 13.9766 24.7578C9.77107 24.7578 6.12269 22.3358 4.34635 18.8148L4.23921 18.6004C3.57063 17.1983 3.19531 15.6305 3.19531 13.9766C3.19531 8.03178 8.03178 3.19531 13.9766 3.19531ZM31.4961 59.7969C25.5513 59.7969 20.7148 54.9604 20.7148 49.0156C20.7148 43.0708 25.5513 38.2344 31.4961 38.2344C37.4409 38.2344 42.2773 43.0708 42.2773 49.0156C42.2773 54.9604 37.4409 59.7969 31.4961 59.7969ZM44.9599 48.45C44.6623 41.2803 38.7376 35.5391 31.4961 35.5391C24.8897 35.5391 19.3789 40.3172 18.2369 46.5991L7.95348 26.0299C9.76716 26.9398 11.8129 27.4531 13.9766 27.4531C21.4075 27.4531 27.4531 21.4075 27.4531 13.9766C27.4531 11.5401 26.8032 9.25276 25.6676 7.27858L49.4647 17.3851C46.0408 18.8013 43.625 22.176 43.625 26.1055C43.625 31.7358 48.5687 36.1773 54.2429 35.4621L44.9599 48.45Z" fill="var(--fill-0, white)" stroke="var(--stroke-0, white)"/>
<path id="Vector_3" d="M49.0156 26.1055C49.0156 28.3348 50.8293 30.1484 53.0586 30.1484C55.2879 30.1484 57.1016 28.3348 57.1016 26.1055C57.1016 23.8762 55.2879 22.0625 53.0586 22.0625C50.8293 22.0625 49.0156 23.8762 49.0156 26.1055ZM54.4062 26.1055C54.4062 26.8486 53.8017 27.4531 53.0586 27.4531C52.3155 27.4531 51.7109 26.8486 51.7109 26.1055C51.7109 25.3624 52.3155 24.7578 53.0586 24.7578C53.8017 24.7578 54.4062 25.3624 54.4062 26.1055Z" fill="var(--fill-0, white)" stroke="var(--stroke-0, white)"/>
<path id="Vector_4" d="M5.89062 15.3242H7.37386C7.54892 16.1832 7.88866 16.9828 8.35751 17.6898L7.30607 18.7413C6.77981 19.2676 6.77981 20.1209 7.3062 20.6472C7.83246 21.1735 8.6858 21.1735 9.21206 20.6472L10.2635 19.5957C10.9705 20.0645 11.77 20.4042 12.629 20.5793V22.0625C12.629 22.8068 13.2324 23.4102 13.9767 23.4102C14.721 23.4102 15.3244 22.8068 15.3244 22.0625V20.5793C16.1834 20.4042 16.9829 20.0645 17.6899 19.5957L18.7413 20.6472C19.2675 21.1735 20.1208 21.1736 20.6472 20.6472C21.1735 20.1209 21.1736 19.2676 20.6473 18.7413L19.5959 17.6898C20.0647 16.9828 20.4045 16.1832 20.5795 15.3242H22.0625C22.8068 15.3242 23.4102 14.7209 23.4102 13.9766C23.4102 13.2323 22.8068 12.6289 22.0625 12.6289H20.5793C20.4042 11.7699 20.0645 10.9703 19.5957 10.2634L20.6472 9.21192C21.1735 8.68566 21.1735 7.83233 20.6472 7.30593C20.1209 6.77967 19.2676 6.77967 18.7412 7.30593L17.6898 8.35738C16.9828 7.88866 16.1832 7.54878 15.3242 7.37386V5.89062C15.3242 5.14631 14.7209 4.54297 13.9766 4.54297C13.2323 4.54297 12.6289 5.14631 12.6289 5.89062V7.37386C11.7699 7.54892 10.9703 7.88866 10.2634 8.35738L9.21192 7.30593C8.68566 6.77967 7.83233 6.77967 7.30593 7.30593C6.77967 7.83219 6.77967 8.68553 7.30593 9.21192L8.35738 10.2634C7.88866 10.9703 7.54878 11.7699 7.37386 12.6289H5.89062C5.14631 12.6289 4.54297 13.2323 4.54297 13.9766C4.54297 14.7209 5.14631 15.3242 5.89062 15.3242ZM13.9766 9.93359C16.2059 9.93359 18.0195 11.7473 18.0195 13.9766C18.0195 16.2059 16.2059 18.0195 13.9766 18.0195C11.7473 18.0195 9.93359 16.2059 9.93359 13.9766C9.93359 11.7473 11.7473 9.93359 13.9766 9.93359Z" fill="var(--fill-0, white)" stroke="var(--stroke-0, white)"/>
</g>
</svg>
