<svg preserveAspectRatio="xMidYMid meet" width="1em" height="1em" overflow="visible" style="display: block;" viewBox="0 0 57.9999 58.0001" fill="none" xmlns="http://www.w3.org/2000/svg">
<g id="Group">
<path id="Vector" d="M56.1874 28.5469H50.4134C43.2186 28.5469 37.3861 34.3794 37.3861 41.5743V44.9727C37.3861 46.5368 36.1181 47.8047 34.5541 47.8047H11.9183C10.4044 47.8047 9.64635 45.9745 10.7167 44.904L13.6422 41.9785L14.0411 42.3773C14.7047 43.0409 15.7805 43.0409 16.4441 42.3773L20.0486 38.7727L21.2502 39.9743C21.7053 40.4293 22.3785 40.5883 22.9891 40.3848L28.1686 38.6583C29.7537 38.13 31.1939 37.2399 32.3752 36.0585L40.4746 27.959C41.1382 27.2954 41.1382 26.2196 40.4746 25.556L40.074 25.1554L47.9103 17.3192C48.5739 16.6556 48.5739 15.5797 47.9103 14.9161L33.4922 0.497701C32.8286 -0.1659 31.7527 -0.1659 31.0891 0.497701L23.2529 8.33393L22.8525 7.93348C22.1889 7.26988 21.113 7.26988 20.4494 7.93348L12.3499 16.033C11.1686 17.2143 10.2786 18.6544 9.75023 20.2393L8.0236 25.419C7.82003 26.0296 7.97897 26.7028 8.43413 27.1579L9.63571 28.3595L6.03121 31.9641C5.36761 32.6277 5.36761 33.7035 6.03121 34.3671L6.43336 34.7692L3.50787 37.6948C-3.98557 45.1879 1.32143 58.0001 11.9183 58.0001H34.5542C41.749 58.0001 47.5815 52.1675 47.5815 44.9727V41.5743C47.5815 40.0102 48.8495 38.7422 50.4136 38.7422H56.1874C57.1883 38.7422 57.9999 37.9308 57.9999 36.9297V30.3594C57.9999 29.3585 57.1883 28.5469 56.1874 28.5469ZM32.2906 4.10242L34.6936 6.50546L32.691 8.50793C32.0274 9.17153 32.0274 10.2474 32.691 10.911C33.3546 11.5746 34.4305 11.5746 35.0941 10.911L37.0967 8.90838L39.4997 11.3114L37.4971 13.314C35.9637 14.9655 38.2503 17.2498 39.9002 15.717L41.9027 13.7145L44.3059 16.1175L37.6711 22.7523L34.0665 19.1476C33.4029 18.484 32.3271 18.484 31.6635 19.1476L29.661 21.1502L27.2578 18.7472L29.2604 16.7446C29.924 16.081 29.924 15.0052 29.2604 14.3416L25.6558 10.737L32.2906 4.10242ZM12.9741 21.3141C13.3356 20.2297 13.9446 19.2443 14.753 18.436L21.6509 11.5381L25.6559 15.5431L23.6534 17.5457C22.9898 18.2093 22.9898 19.2852 23.6534 19.9488L28.4595 24.755C29.1231 25.4186 30.199 25.4186 30.8626 24.755L32.865 22.7524L36.8701 26.7574L29.9722 33.6553C29.1639 34.4636 28.1785 35.0727 27.094 35.4342L22.9108 36.8286L11.5796 25.4975L12.9741 21.3141ZM12.0385 30.7625L17.6457 36.3696L15.2427 38.7726L9.63548 33.1654L12.0385 30.7625ZM54.6015 35.3438H50.4134C46.9725 35.3438 44.183 38.1332 44.183 41.5743V44.9727C44.183 50.2906 39.8719 54.6016 34.5541 54.6016H11.9182C4.34898 54.6016 0.558366 45.4501 5.91057 40.0979L8.83605 37.1723L11.2391 39.5754L8.31371 42.5009C5.1023 45.7123 7.37676 51.2032 11.9183 51.2032H34.5542C37.9952 51.2032 40.7847 48.4137 40.7847 44.9727V41.5743C40.7847 36.2564 45.0957 31.9454 50.4136 31.9454H54.6015V35.3438Z" fill="var(--fill-0, white)"/>
<path id="Vector_2" d="M25.2553 31.9641C25.9189 31.3005 25.9189 30.2247 25.2553 29.5611L18.8472 23.1529C17.1957 21.6195 14.9113 23.9061 16.4442 25.5559L22.8523 31.9641C23.5157 32.6277 24.5917 32.6277 25.2553 31.9641Z" fill="var(--fill-0, white)"/>
</g>
</svg>
