<svg preserveAspectRatio="xMidYMid meet" width="1em" height="1em" overflow="visible" style="display: block;" viewBox="0 0 31.6246 40.2516" fill="none" xmlns="http://www.w3.org/2000/svg">
<g id="Group">
<path id="Vector" d="M30.1875 2.96473H25.8749V2.87525V0H22.9997H12.9375C7.74275 0 3.69234 2.37836 1.53297 6.69723C0.0431253 9.67786 0 12.6131 0 12.9373V37.3751V40.2516H2.87538H5.74969H8.62493V37.3751V12.9815C8.63127 12.8395 8.70067 11.6161 9.27249 10.5052C9.72315 9.62921 10.5464 8.6248 12.9375 8.6248H22.9997H25.8749V5.83998H30.1875C30.9814 5.83998 31.6246 5.19674 31.6246 4.40283C31.6246 3.60892 30.9814 2.96473 30.1875 2.96473ZM22.9997 5.75063H12.9375C9.98419 5.75063 7.89113 6.90774 6.71623 9.18934C5.77502 11.0181 5.74969 12.9237 5.74969 12.9427V37.3752H2.87538V12.9373C2.87538 12.8363 2.88913 10.4148 4.10513 7.98264C5.26965 5.65265 7.74801 2.87525 12.9375 2.87525H22.9997V5.75063Z" fill="var(--fill-0, white)"/>
</g>
</svg>
