<svg preserveAspectRatio="xMidYMid meet" width="1em" height="1em" overflow="visible" style="display: block;" viewBox="0 0 71 71" fill="none" xmlns="http://www.w3.org/2000/svg">
<g id="galao 1">
<path id="Vector" d="M49.3672 19.9688C47.7496 19.9667 46.1988 19.3232 45.055 18.1794C43.9111 17.0356 43.2677 15.4848 43.2656 13.8672V4.4375C43.2656 3.84905 43.0319 3.2847 42.6158 2.86861C42.1997 2.45251 41.6353 2.21875 41.0469 2.21875H29.9531C29.3647 2.21875 28.8003 2.45251 28.3842 2.86861C27.9681 3.2847 27.7344 3.84905 27.7344 4.4375V13.8672C27.7323 15.4848 27.0889 17.0356 25.945 18.1794C24.8012 19.3232 23.2504 19.9667 21.6328 19.9688C18.8387 19.9719 16.1598 21.0833 14.1841 23.0591C12.2083 25.0348 11.0969 27.7137 11.0938 30.5078V33.2812C11.0962 34.0567 11.3025 34.8178 11.6919 35.4884C12.0813 36.1589 12.6402 36.7153 13.3125 37.1017V49.4295C12.6402 49.8159 12.0813 50.3723 11.6919 51.0429C11.3025 51.7134 11.0962 52.4746 11.0938 53.25V62.125C11.0957 63.8898 11.7976 65.5817 13.0455 66.8295C14.2933 68.0774 15.9852 68.7793 17.75 68.7812H53.25C55.0148 68.7793 56.7067 68.0774 57.9545 66.8295C59.2024 65.5817 59.9043 63.8898 59.9062 62.125V53.25C59.9038 52.4746 59.6975 51.7134 59.3081 51.0429C58.9187 50.3723 58.3598 49.8159 57.6875 49.4295V37.1017C58.3598 36.7153 58.9187 36.1589 59.3081 35.4884C59.6975 34.8178 59.9038 34.0567 59.9062 33.2812V30.5078C59.9031 27.7137 58.7917 25.0348 56.8159 23.0591C54.8402 21.0833 52.1613 19.9719 49.3672 19.9688ZM32.1719 6.65625H38.8281V11.0938H32.1719V6.65625ZM15.5312 30.5078C15.5333 28.8902 16.1768 27.3394 17.3206 26.1956C18.4644 25.0518 20.0152 24.4083 21.6328 24.4062C24.1388 24.4031 26.5619 23.5085 28.4687 21.8825C30.3755 20.2566 31.6417 18.0052 32.0407 15.5312H38.9591C39.3582 18.0052 40.6244 20.2566 42.5312 21.8826C44.4381 23.5086 46.8612 24.4031 49.3672 24.4062C50.9848 24.4083 52.5356 25.0518 53.6794 26.1956C54.8232 27.3394 55.4667 28.8902 55.4688 30.5078V33.2812H15.5312V30.5078ZM53.25 48.8125H17.75V37.7188H53.25V48.8125ZM55.4688 62.125C55.468 62.7132 55.234 63.2771 54.818 63.693C54.4021 64.109 53.8382 64.343 53.25 64.3438H17.75C17.1618 64.343 16.5979 64.109 16.1819 63.693C15.766 63.2771 15.532 62.7132 15.5312 62.125V53.25H55.4688V62.125Z" fill="var(--fill-0, white)"/>
</g>
</svg>
