<svg preserveAspectRatio="xMidYMid meet" width="1em" height="1em" overflow="visible" style="display: block;" viewBox="0 0 43.6719 52" fill="none" xmlns="http://www.w3.org/2000/svg">
<g id="Group">
<path id="Vector" d="M42.1484 8.22656H27.4219V1.52344C27.4219 0.682094 26.7398 0 25.8984 0H1.52344C0.682094 0 0 0.682094 0 1.52344V42.25C0 43.0913 0.682094 43.7734 1.52344 43.7734H16.25V50.4766C16.25 51.3179 16.9321 52 17.7734 52H42.1484C42.9898 52 43.6719 51.3179 43.6719 50.4766V9.75C43.6719 8.90866 42.9898 8.22656 42.1484 8.22656ZM3.04688 40.7266V3.04688H24.375V40.7266H3.04688ZM40.625 48.9531H19.2969V43.7734H25.8984C26.7398 43.7734 27.4219 43.0913 27.4219 42.25V11.2734H40.625V48.9531Z" fill="var(--fill-0, white)"/>
<path id="Vector_2" d="M31.5859 25.8984C31.9758 25.8984 32.3657 25.7496 32.6631 25.4522L33.4756 24.6397C34.0706 24.0448 34.0706 23.0802 33.4756 22.4852C32.8808 21.8904 31.9161 21.8904 31.3212 22.4852L30.5087 23.2977C29.9137 23.8926 29.9137 24.8572 30.5087 25.4522C30.8061 25.7496 31.196 25.8984 31.5859 25.8984Z" fill="var(--fill-0, white)"/>
<path id="Vector_3" d="M35.3838 29.5147C35.6811 29.8121 36.071 29.9609 36.4609 29.9609C36.8508 29.9609 37.2407 29.8121 37.5381 29.5147C38.1331 28.9198 38.1331 27.9552 37.5381 27.3602L36.7256 26.5477C36.1308 25.9529 35.1661 25.9529 34.5712 26.5477C33.9762 27.1426 33.9762 28.1072 34.5712 28.7022L35.3838 29.5147Z" fill="var(--fill-0, white)"/>
<path id="Vector_4" d="M31.5859 17.7734C31.9758 17.7734 32.3657 17.6246 32.6631 17.3272L33.4756 16.5147C34.0706 15.9198 34.0706 14.9552 33.4756 14.3602C32.8808 13.7654 31.9161 13.7654 31.3212 14.3602L30.5087 15.1727C29.9137 15.7676 29.9137 16.7322 30.5087 17.3272C30.8061 17.6246 31.196 17.7734 31.5859 17.7734Z" fill="var(--fill-0, white)"/>
<path id="Vector_5" d="M35.3838 21.3897C35.6811 21.6871 36.071 21.8359 36.4609 21.8359C36.8508 21.8359 37.2407 21.6871 37.5381 21.3897C38.1331 20.7948 38.1331 19.8302 37.5381 19.2352L36.7256 18.4227C36.1308 17.8279 35.1661 17.8279 34.5712 18.4227C33.9762 19.0176 33.9762 19.9822 34.5712 20.5772L35.3838 21.3897Z" fill="var(--fill-0, white)"/>
<path id="Vector_6" d="M31.5859 34.0234C31.9758 34.0234 32.3657 33.8746 32.6631 33.5772L33.4756 32.7647C34.0706 32.1698 34.0706 31.2052 33.4756 30.6102C32.8808 30.0154 31.9161 30.0154 31.3212 30.6102L30.5087 31.4227C29.9137 32.0176 29.9137 32.9822 30.5087 33.5772C30.8061 33.8746 31.196 34.0234 31.5859 34.0234Z" fill="var(--fill-0, white)"/>
<path id="Vector_7" d="M35.3838 37.6397C35.6811 37.9371 36.071 38.0859 36.4609 38.0859C36.8508 38.0859 37.2407 37.9371 37.5381 37.6397C38.1331 37.0448 38.1331 36.0802 37.5381 35.4852L36.7256 34.6727C36.1308 34.0779 35.1661 34.0779 34.5712 34.6727C33.9762 35.2676 33.9762 36.2322 34.5712 36.8272L35.3838 37.6397Z" fill="var(--fill-0, white)"/>
<path id="Vector_8" d="M31.5859 42.1484C31.9758 42.1484 32.3657 41.9996 32.6631 41.7022L33.4756 40.8897C34.0706 40.2948 34.0706 39.3302 33.4756 38.7352C32.8808 38.1404 31.9161 38.1404 31.3212 38.7352L30.5087 39.5477C29.9137 40.1426 29.9137 41.1072 30.5087 41.7022C30.8061 41.9996 31.196 42.1484 31.5859 42.1484Z" fill="var(--fill-0, white)"/>
<path id="Vector_9" d="M35.3838 45.7647C35.6811 46.0621 36.071 46.2109 36.4609 46.2109C36.8508 46.2109 37.2407 46.0621 37.5381 45.7647C38.1331 45.1698 38.1331 44.2052 37.5381 43.6102L36.7256 42.7977C36.1308 42.2029 35.1661 42.2029 34.5712 42.7977C33.9762 43.3926 33.9762 44.3572 34.5712 44.9522L35.3838 45.7647Z" fill="var(--fill-0, white)"/>
<path id="Vector_10" d="M6.94626 6.23533L6.13376 7.04783C5.53881 7.64268 5.53881 8.60732 6.13376 9.20227C6.43114 9.49965 6.82104 9.64844 7.21094 9.64844C7.60084 9.64844 7.99073 9.49965 8.28811 9.20217L9.10061 8.38967C9.69556 7.79482 9.69556 6.83018 9.10061 6.23523C8.50576 5.64038 7.54112 5.64038 6.94626 6.23533Z" fill="var(--fill-0, white)"/>
<path id="Vector_11" d="M12.3506 10.2978C11.7558 9.70298 10.7911 9.70298 10.1962 10.2978C9.60121 10.8927 9.60121 11.8573 10.1962 12.4523L11.0087 13.2648C11.3061 13.5621 11.696 13.7109 12.0859 13.7109C12.4758 13.7109 12.8657 13.5621 13.1631 13.2647C13.7581 12.6698 13.7581 11.7052 13.1631 11.1102L12.3506 10.2978Z" fill="var(--fill-0, white)"/>
<path id="Vector_12" d="M15.0713 14.3603L14.2588 15.1728C13.6638 15.7677 13.6638 16.7323 14.2588 17.3273C14.5561 17.6246 14.946 17.7734 15.3359 17.7734C15.7258 17.7734 16.1157 17.6246 16.4131 17.3272L17.2256 16.5147C17.8206 15.9198 17.8206 14.9552 17.2256 14.3602C16.6308 13.7654 15.6661 13.7654 15.0713 14.3603Z" fill="var(--fill-0, white)"/>
<path id="Vector_13" d="M20.4756 18.4228C19.8808 17.828 18.9161 17.828 18.3212 18.4228C17.7262 19.0177 17.7262 19.9823 18.3212 20.5773L19.1337 21.3898C19.4311 21.6871 19.821 21.8359 20.2109 21.8359C20.6008 21.8359 20.9907 21.6871 21.2881 21.3897C21.8831 20.7948 21.8831 19.8302 21.2881 19.2352L20.4756 18.4228Z" fill="var(--fill-0, white)"/>
<path id="Vector_14" d="M15.0713 6.23533L14.2588 7.04783C13.6638 7.64268 13.6638 8.60732 14.2588 9.20227C14.5561 9.49965 14.946 9.64844 15.3359 9.64844C15.7258 9.64844 16.1157 9.49965 16.4131 9.20217L17.2256 8.38967C17.8206 7.79482 17.8206 6.83018 17.2256 6.23523C16.6308 5.64038 15.6661 5.64038 15.0713 6.23533Z" fill="var(--fill-0, white)"/>
<path id="Vector_15" d="M20.4756 10.2978C19.8808 9.70298 18.9161 9.70298 18.3212 10.2978C17.7262 10.8927 17.7262 11.8573 18.3212 12.4523L19.1337 13.2648C19.4311 13.5621 19.821 13.7109 20.2109 13.7109C20.6008 13.7109 20.9907 13.5621 21.2881 13.2647C21.8831 12.6698 21.8831 11.7052 21.2881 11.1102L20.4756 10.2978Z" fill="var(--fill-0, white)"/>
<path id="Vector_16" d="M6.94626 14.3603L6.13376 15.1728C5.53881 15.7677 5.53881 16.7323 6.13376 17.3273C6.43114 17.6246 6.82104 17.7734 7.21094 17.7734C7.60084 17.7734 7.99073 17.6246 8.28811 17.3272L9.10061 16.5147C9.69556 15.9198 9.69556 14.9552 9.10061 14.3602C8.50576 13.7654 7.54112 13.7654 6.94626 14.3603Z" fill="var(--fill-0, white)"/>
<path id="Vector_17" d="M12.3506 18.4228C11.7558 17.828 10.7911 17.828 10.1962 18.4228C9.60121 19.0177 9.60121 19.9823 10.1962 20.5773L11.0087 21.3898C11.3061 21.6871 11.696 21.8359 12.0859 21.8359C12.4758 21.8359 12.8657 21.6871 13.1631 21.3897C13.7581 20.7948 13.7581 19.8302 13.1631 19.2352L12.3506 18.4228Z" fill="var(--fill-0, white)"/>
<path id="Vector_18" d="M15.0713 22.4853L14.2588 23.2978C13.6638 23.8927 13.6638 24.8573 14.2588 25.4523C14.5561 25.7496 14.946 25.8984 15.3359 25.8984C15.7258 25.8984 16.1157 25.7496 16.4131 25.4522L17.2256 24.6397C17.8206 24.0448 17.8206 23.0802 17.2256 22.4852C16.6308 21.8904 15.6661 21.8904 15.0713 22.4853Z" fill="var(--fill-0, white)"/>
<path id="Vector_19" d="M20.4756 26.5478C19.8808 25.953 18.9161 25.953 18.3212 26.5478C17.7262 27.1427 17.7262 28.1073 18.3212 28.7023L19.1337 29.5148C19.4311 29.8121 19.821 29.9609 20.2109 29.9609C20.6008 29.9609 20.9907 29.8121 21.2881 29.5147C21.8831 28.9198 21.8831 27.9552 21.2881 27.3602L20.4756 26.5478Z" fill="var(--fill-0, white)"/>
<path id="Vector_20" d="M6.94626 22.4853L6.13376 23.2978C5.53881 23.8927 5.53881 24.8573 6.13376 25.4523C6.43114 25.7496 6.82104 25.8984 7.21094 25.8984C7.60084 25.8984 7.99073 25.7496 8.28811 25.4522L9.10061 24.6397C9.69556 24.0448 9.69556 23.0802 9.10061 22.4852C8.50576 21.8904 7.54112 21.8904 6.94626 22.4853Z" fill="var(--fill-0, white)"/>
<path id="Vector_21" d="M12.3506 26.5478C11.7558 25.953 10.7911 25.953 10.1962 26.5478C9.60121 27.1427 9.60121 28.1073 10.1962 28.7023L11.0087 29.5148C11.3061 29.8121 11.696 29.9609 12.0859 29.9609C12.4758 29.9609 12.8657 29.8121 13.1631 29.5147C13.7581 28.9198 13.7581 27.9552 13.1631 27.3602L12.3506 26.5478Z" fill="var(--fill-0, white)"/>
<path id="Vector_22" d="M15.0713 30.6103L14.2588 31.4228C13.6638 32.0177 13.6638 32.9823 14.2588 33.5773C14.5561 33.8746 14.946 34.0234 15.3359 34.0234C15.7258 34.0234 16.1157 33.8746 16.4131 33.5772L17.2256 32.7647C17.8206 32.1698 17.8206 31.2052 17.2256 30.6102C16.6308 30.0154 15.6661 30.0154 15.0713 30.6103Z" fill="var(--fill-0, white)"/>
<path id="Vector_23" d="M20.4756 34.6728C19.8808 34.078 18.9161 34.078 18.3212 34.6728C17.7262 35.2677 17.7262 36.2323 18.3212 36.8273L19.1337 37.6398C19.4311 37.9371 19.821 38.0859 20.2109 38.0859C20.6008 38.0859 20.9907 37.9371 21.2881 37.6397C21.8831 37.0448 21.8831 36.0802 21.2881 35.4852L20.4756 34.6728Z" fill="var(--fill-0, white)"/>
<path id="Vector_24" d="M6.94626 30.6103L6.13376 31.4228C5.53881 32.0177 5.53881 32.9823 6.13376 33.5773C6.43114 33.8746 6.82104 34.0234 7.21094 34.0234C7.60084 34.0234 7.99073 33.8746 8.28811 33.5772L9.10061 32.7647C9.69556 32.1698 9.69556 31.2052 9.10061 30.6102C8.50576 30.0154 7.54112 30.0154 6.94626 30.6103Z" fill="var(--fill-0, white)"/>
<path id="Vector_25" d="M12.3506 34.6728C11.7558 34.078 10.7911 34.078 10.1962 34.6728C9.60121 35.2677 9.60121 36.2323 10.1962 36.8273L11.0087 37.6398C11.3061 37.9371 11.696 38.0859 12.0859 38.0859C12.4758 38.0859 12.8657 37.9371 13.1631 37.6397C13.7581 37.0448 13.7581 36.0802 13.1631 35.4852L12.3506 34.6728Z" fill="var(--fill-0, white)"/>
</g>
</svg>
