<svg preserveAspectRatio="xMidYMid meet" width="1em" height="1em" overflow="visible" style="display: block;" viewBox="0 0 45.7023 65" fill="none" xmlns="http://www.w3.org/2000/svg">
<g id="Group">
<path id="Vector" d="M43.7565 33.7688C44.9654 32.4201 45.7023 30.6402 45.7023 28.6908C45.7023 26.4152 44.7051 24.2929 42.9599 22.8394L38.6658 18.4165C37.6889 17.4104 36.0815 17.3865 35.0756 18.3634C34.0695 19.3402 34.0457 20.9477 35.0225 21.9537L39.4194 26.4825C39.4953 26.5607 39.5762 26.6338 39.6615 26.7017C40.2734 27.188 40.6243 27.913 40.6243 28.6908C40.6243 30.0909 39.4853 31.2299 38.0853 31.2299C36.6829 31.2299 35.5462 32.3666 35.5462 33.769C35.5462 35.1713 36.6829 36.308 38.0853 36.308C39.4853 36.308 40.6243 37.4471 40.6243 38.8471C40.6243 40.2471 39.4853 41.3862 38.0853 41.3862C36.6829 41.3862 35.5462 42.5229 35.5462 43.9252C35.5462 45.3276 36.6829 46.4643 38.0853 46.4643C39.4853 46.4643 40.6243 47.6033 40.6243 49.0024L40.6219 54.9552C40.6208 57.7379 38.3922 59.9192 35.5497 59.9211C35.5497 59.9211 17.8788 59.924 10.1563 59.9211C7.31112 59.92 5.08169 57.7378 5.08055 54.953L5.07814 49.0034C5.07814 47.6033 6.21716 46.4643 7.6172 46.4643H25.3903C26.7926 46.4643 27.9294 45.3276 27.9294 43.9252C27.9294 42.5229 26.7926 41.3862 25.3903 41.3862H7.61708C6.21703 41.3862 5.07801 40.2471 5.07801 38.8471C5.07801 37.4471 6.21703 36.308 7.61708 36.308H25.3902C26.7925 36.308 27.9292 35.1713 27.9292 33.769C27.9292 32.3666 26.7925 31.2299 25.3902 31.2299H7.61708C6.21703 31.2299 5.07801 30.0909 5.07801 28.6908C5.07801 28.1811 5.22604 27.6953 5.50737 27.2775L17.2036 15.234H29.1986C30.601 15.234 31.7377 14.0973 31.7377 12.695V5.07801C31.7377 2.27805 29.4597 0 26.6597 0H19.0426C16.2425 0 13.9646 2.27805 13.9646 5.07801V11.2804L1.73355 23.8747C1.65903 23.9514 1.58933 24.0329 1.52496 24.1186C0.527364 25.4463 0 27.0275 0 28.6908C0 30.6402 0.736965 32.4201 1.94581 33.7688C0.736965 35.1176 0 36.8975 0 38.8468C0 40.7963 0.736965 42.5762 1.94581 43.9249C0.736965 45.2737 0 47.054 0 49.0037L0.00241273 54.9544C0.00355531 57.6687 1.06628 60.2046 2.9947 62.0956C4.90294 63.9666 7.44556 64.9976 10.1542 64.9986C12.7291 64.9996 16.4082 65 20.1711 65C27.6956 65 35.5509 64.9986 35.5518 64.9986C38.2598 64.9967 40.8014 63.9657 42.7086 62.0958C44.6364 60.2056 45.6986 57.6704 45.6999 54.9567L45.7022 49.003C45.7022 47.0536 44.9652 45.2737 43.7564 43.925C44.9652 42.5762 45.7022 40.7963 45.7022 38.847C45.7023 36.8976 44.9655 35.1176 43.7565 33.7688ZM19.0426 5.07801H26.6597V10.156H19.0426V5.07801Z" fill="var(--fill-0, white)"/>
</g>
</svg>
