<svg preserveAspectRatio="xMidYMid meet" width="1em" height="1em" overflow="visible" style="display: block;" viewBox="0 0 62.0293 63.0001" fill="none" xmlns="http://www.w3.org/2000/svg">
<g id="Group">
<path id="Vector" d="M53.4174 38.0844C54.305 38.0844 55.0248 38.8043 55.0248 39.6919C55.0248 39.8233 55.009 39.9545 54.9769 40.0825L49.7426 61.0327V61.0337C49.5629 61.7498 48.9182 62.2507 48.1801 62.2495L11.5219 62.2505C10.7846 62.2505 10.1425 61.7484 9.96326 61.0337L9.96228 61.0327L4.72595 40.0815L4.72693 40.0805C4.5121 39.2199 5.03436 38.3479 5.8949 38.1323L6.08923 38.0962C6.15432 38.0882 6.21992 38.0844 6.28552 38.0844H53.4174ZM12.7767 59.0356H46.9252L51.3588 41.3022H8.34314L12.7767 59.0356Z" fill="var(--fill-0, white)" stroke="var(--stroke-0, white)" stroke-width="1.5"/>
<path id="Vector_2" d="M3.96289 38.088H55.7393V33.4493H3.96289V38.088ZM58.9502 39.2501C58.9464 40.3823 58.0295 41.2987 56.8975 41.3019H2.80567C1.67097 41.3001 0.751622 40.3809 0.750001 39.2462V32.2862L0.76172 32.0763C0.870652 31.0424 1.74397 30.2371 2.80567 30.2354H56.8945L57.1045 30.2462C58.1406 30.3525 58.9485 31.2272 58.9502 32.2911V39.2501Z" fill="var(--fill-0, white)" stroke="var(--stroke-0, white)" stroke-width="1.5"/>
<path id="Vector_3" d="M8.02262 9.04882C8.12523 9.04529 8.22746 9.05251 8.32828 9.06835L8.32926 9.06738L54.9005 16.3213L55.0617 16.3545C55.7969 16.5472 56.2979 17.234 56.257 17.9932L56.2404 18.1572C56.2249 18.2561 56.1999 18.3547 56.1652 18.4512L56.1642 18.4502L51.1945 32.3769C50.9668 33.0222 50.3564 33.452 49.673 33.4492C49.6714 33.4492 49.6698 33.4502 49.6681 33.4502V33.4492C48.7828 33.446 48.0661 32.7278 48.0666 31.8418L48.0724 31.7041C48.0843 31.5665 48.1146 31.4311 48.1613 31.3008L52.4836 19.2012L9.75309 12.5449L10.4084 31.7871L10.4064 31.9512C10.3523 32.7619 9.69308 33.4154 8.86441 33.4473L8.86539 33.4482C8.86313 33.4483 8.86081 33.4472 8.85855 33.4473V33.4482L8.85758 33.4473C7.97988 33.4821 7.23785 32.8027 7.1984 31.9238V31.9199C7.19821 31.915 7.19673 31.9013 7.19644 31.8867L7.19742 31.8857L6.47184 10.71L6.47281 10.709C6.44301 9.82269 7.13591 9.0795 8.02262 9.04882Z" fill="var(--fill-0, white)" stroke="var(--stroke-0, white)" stroke-width="1.5"/>
<path id="Vector_4" d="M61.2542 11.4377C61.2545 11.4354 61.2548 11.4332 61.2552 11.4309C61.4254 10.3112 60.6586 9.26352 59.5384 9.08908L6.0911 0.774625H6.09012C5.03864 0.612177 4.05013 1.27665 3.78641 2.28439L3.74344 2.49045L2.67313 9.36545L2.67215 9.3674C2.50119 10.4886 3.26946 11.537 4.38993 11.7121H4.3909L57.8362 20.0256V20.0246C57.9405 20.0412 58.0466 20.051 58.1536 20.051H58.1546C59.1661 20.0489 60.0268 19.3119 60.1848 18.3127V18.3108L61.2532 11.4387L61.2542 11.4377ZM61.2552 11.4309V11.4328C61.255 11.4337 61.2544 11.4352 61.2542 11.4367H61.2532L61.2542 11.4377M61.2552 11.4309C61.2552 11.4309 61.2556 11.4331 61.2552 11.4358C61.255 11.4367 61.2544 11.4385 61.2542 11.4397V11.4377M6.02762 8.71408L57.1858 16.6711L57.8997 12.0842L6.74149 4.12716L6.02762 8.71408Z" fill="var(--fill-0, white)" stroke="var(--stroke-0, white)" stroke-width="1.5"/>
</g>
</svg>
