<svg preserveAspectRatio="xMidYMid meet" width="1em" height="1em" overflow="visible" style="display: block;" viewBox="0 0 49.2188 59.9998" fill="none" xmlns="http://www.w3.org/2000/svg">
<g id="Group">
<path id="Vector" d="M19.3362 28.125C18.3654 28.125 17.5784 28.9121 17.5784 29.8828V58.242C17.5784 59.2128 18.3654 59.9998 19.3362 59.9998H33.3986C34.3693 59.9998 35.1564 59.2128 35.1564 58.242V29.8828C35.1564 28.9121 34.3693 28.125 33.3986 28.125H31.6408C31.6408 22.6655 31.6408 8.47175 31.6408 1.758C31.6408 0.78722 30.8537 0.000193645 29.883 0.000193645H22.8518C21.881 0.000193645 21.094 0.78722 21.094 1.758V28.125H19.3362ZM31.6408 56.4842H21.094V31.6406H31.6408V56.4842ZM24.6096 13.0329L28.1252 16.5485V22.1235L24.6096 18.6079V13.0329ZM28.1252 3.5158V11.5767L24.6096 8.06112V3.5158H28.1252ZM24.6096 23.5797L28.1252 27.0953V28.125H24.6096V23.5797Z" fill="var(--fill-0, white)"/>
<path id="Vector_2" d="M6.80021 28.125H5.27374C4.30296 28.125 3.51594 28.9121 3.51594 29.8828V58.242C3.51594 59.2128 4.30296 59.9998 5.27374 59.9998H12.3049C13.2757 59.9998 14.0628 59.2128 14.0628 58.242V29.8828C14.0628 28.9121 13.2757 28.125 12.3049 28.125H10.7785C11.7144 21.64 13.9609 15.3051 17.3278 9.69365C17.8274 8.86116 17.5574 7.7814 16.7249 7.28195C15.892 6.78226 14.8126 7.0525 14.3132 7.88487C13.516 9.21365 12.7787 10.581 12.1009 11.979C12.6153 8.68186 13.2526 5.40497 14.016 2.16077C14.2383 1.21577 13.6525 0.269489 12.7075 0.0470684C11.7625 -0.175118 10.8161 0.410582 10.5938 1.35558C9.88914 4.34993 9.2875 7.37042 8.78934 10.4098C8.29118 7.37042 7.68943 4.35005 6.9849 1.35558C6.7626 0.410582 5.8162 -0.175118 4.8712 0.0470684C3.92609 0.269372 3.34027 1.21565 3.56258 2.16065C4.32593 5.40485 4.96331 8.68186 5.47764 11.9789C4.79983 10.581 4.06261 9.21354 3.26539 7.88487C2.76594 7.0525 1.68618 6.78238 0.853686 7.28195C0.021191 7.7814 -0.24869 8.86116 0.25076 9.69365C3.61777 15.3051 5.86424 21.64 6.80021 28.125ZM10.5471 56.4842H7.03154V31.6406H10.5471V56.4842Z" fill="var(--fill-0, white)"/>
<path id="Vector_3" d="M43.9454 0.000193645C42.9746 0.000193645 42.1876 0.78722 42.1876 1.758V28.125H40.4298C39.459 28.125 38.672 28.9121 38.672 29.8828V58.242C38.672 59.2128 39.459 59.9998 40.4298 59.9998H47.461C48.4318 59.9998 49.2188 59.2128 49.2188 58.242V29.8828C49.2188 28.9121 48.4318 28.125 47.461 28.125H45.7032V1.758C45.7032 0.78722 44.9162 0.000193645 43.9454 0.000193645ZM45.7032 56.4842H42.1876V31.6406H45.7032V56.4842Z" fill="var(--fill-0, white)"/>
</g>
</svg>
