<svg preserveAspectRatio="xMidYMid meet" width="1em" height="1em" overflow="visible" style="display: block;" viewBox="0 0 58.9924 52.1703" fill="none" xmlns="http://www.w3.org/2000/svg">
<g id="embalagem flexivel">
<g id="Vector">
<mask id="path-1-outside-1_0_14" maskUnits="userSpaceOnUse" x="-0.5" y="-0.5" width="60" height="53" fill="black">
<rect fill="white" x="-0.5" y="-0.5" width="60" height="53"/>
<path d="M57.0764 23.5294H56.6357C56.2787 21.2565 55.318 19.1212 53.8537 17.3466C52.3895 15.572 50.4755 14.2233 48.3118 13.4412C47.741 13.2389 47.1169 13.2467 46.5513 13.4632V12.134C46.551 12.0225 46.5728 11.9121 46.6155 11.8091C46.6582 11.7061 46.7208 11.6126 46.7999 11.534L53.0745 5.25931C53.3398 4.99341 53.4888 4.63315 53.4888 4.25755C53.4888 3.88195 53.3398 3.52168 53.0745 3.25579L51.4621 1.64338C51.196 1.37926 50.8362 1.23117 50.4613 1.23146C50.0864 1.23175 49.7268 1.3804 49.4611 1.64493L43.1805 7.92557C42.627 8.47673 42.1882 9.13213 41.8895 9.8539C41.5907 10.5757 41.438 11.3495 41.4402 12.1306V13.4636C41.0172 13.3029 40.5594 13.2567 40.1129 13.3296L38.8433 2.74538C38.7683 2.12656 38.4695 1.55656 38.0031 1.14292C37.5368 0.729286 36.9352 0.500598 36.3119 0.5H34.4008C33.725 0.500771 33.0772 0.769555 32.5993 1.24739C32.1215 1.72522 31.8527 2.37307 31.852 3.04883V5.88426C31.852 6.10959 31.9415 6.32569 32.1008 6.48502C32.2601 6.64435 32.4762 6.73387 32.7016 6.73387C32.9269 6.73387 33.143 6.64435 33.3023 6.48502C33.4617 6.32569 33.5512 6.10959 33.5512 5.88426V3.04883C33.5514 2.82357 33.641 2.60762 33.8003 2.44834C33.9596 2.28906 34.1755 2.19947 34.4008 2.19922H36.3119C36.5198 2.19949 36.7205 2.27583 36.876 2.41383C37.0315 2.55184 37.1312 2.74198 37.1563 2.94841L38.4754 13.9453C36.602 14.8479 34.9755 16.1914 33.7355 17.8607C32.4954 19.53 31.6788 21.4752 31.3557 23.5294H30.9151C30.5396 23.5298 30.1797 23.6791 29.9143 23.9446C29.6488 24.21 29.4995 24.57 29.499 24.9454V27.2243C29.4995 27.5998 29.6488 27.9597 29.9143 28.2251C30.1797 28.4906 30.5396 28.6399 30.9151 28.6404H31.4399L33.5125 43.1482H20.9633V41.4387C20.9621 40.5692 20.6954 39.7208 20.1988 39.007C20.6681 38.547 20.9417 37.9237 20.9627 37.2669C20.9837 36.6102 20.7504 35.9707 20.3115 35.4816C20.7315 35.0126 20.9638 34.4051 20.9638 33.7755C20.9638 33.1459 20.7315 32.5384 20.3115 32.0694C20.7501 31.5798 20.9832 30.9401 20.9625 30.2831C20.9418 29.6261 20.6689 29.0024 20.2004 28.5413C20.7 27.83 20.9666 26.9811 20.9633 26.1118V24.28C20.9611 22.4337 20.3528 20.6392 19.2319 19.1721C18.111 17.7049 16.5395 16.6463 14.7587 16.1589C14.5803 16.1093 14.4232 16.0026 14.3115 15.855C14.1998 15.7074 14.1397 15.5272 14.1405 15.3421V14.9938H14.4298C14.8052 14.9934 15.1651 14.8441 15.4306 14.5786C15.696 14.3132 15.8454 13.9532 15.8458 13.5778V12.7249C15.8446 11.756 15.5345 10.8127 14.9606 10.032C14.3867 9.25131 13.5789 8.67393 12.6545 8.3837L13.3064 2.94794C13.3311 2.74163 13.4305 2.55152 13.5859 2.41356C13.7412 2.2756 13.9418 2.19934 14.1496 2.19922H16.0606C16.2859 2.19947 16.5018 2.28906 16.6611 2.44834C16.8204 2.60762 16.91 2.82357 16.9102 3.04883V11.5914C16.911 12.2671 17.1798 12.915 17.6576 13.3928C18.1354 13.8707 18.7833 14.1394 19.4591 14.1402H31.0023C31.6781 14.1394 32.326 13.8707 32.8038 13.3928C33.2816 12.915 33.5504 12.2671 33.5512 11.5914V9.84911C33.5512 9.62378 33.4617 9.40768 33.3023 9.24834C33.143 9.08901 32.9269 8.9995 32.7016 8.9995C32.4762 8.9995 32.2601 9.08901 32.1008 9.24834C31.9415 9.40768 31.852 9.62378 31.852 9.84911V11.5914C31.8517 11.8166 31.7621 12.0326 31.6028 12.1919C31.4436 12.3512 31.2276 12.4407 31.0023 12.441H19.4591C19.2338 12.4407 19.0178 12.3512 18.8586 12.1919C18.6993 12.0326 18.6097 11.8166 18.6094 11.5914V3.04883C18.6087 2.37308 18.3399 1.72522 17.8621 1.24739C17.3842 0.769557 16.7364 0.500773 16.0606 0.500003H14.1495C13.5261 0.500297 12.9244 0.728992 12.4582 1.14285C11.9919 1.55671 11.6934 2.12705 11.6192 2.74604L10.9679 8.17696H10.165C8.95926 8.17833 7.80329 8.65793 6.9507 9.51053C6.09811 10.3631 5.61853 11.5191 5.61717 12.7249V13.5778C5.6176 13.9532 5.76692 14.3132 6.03238 14.5786C6.29785 14.8441 6.65777 14.9934 7.03319 14.9938H7.32314V15.3421C7.32386 15.5273 7.26366 15.7076 7.15181 15.8553C7.03997 16.0029 6.88268 16.1097 6.70419 16.1591C5.9145 16.3731 5.16074 16.7026 4.46733 17.1369C4.37277 17.1961 4.29079 17.2734 4.22609 17.3643C4.16139 17.4552 4.11522 17.5579 4.09023 17.6667C4.06524 17.7754 4.06191 17.888 4.08043 17.998C4.09895 18.108 4.13896 18.2133 4.19817 18.3079C4.25739 18.4025 4.33465 18.4844 4.42554 18.5491C4.51644 18.6138 4.61918 18.66 4.72792 18.685C4.83665 18.71 4.94925 18.7133 5.05927 18.6948C5.16929 18.6763 5.27459 18.6363 5.36915 18.577C5.9207 18.2316 6.52023 17.9695 7.14835 17.7992C7.6869 17.6518 8.16207 17.3314 8.50068 16.8874C8.8393 16.4435 9.0226 15.9005 9.02236 15.3421V14.9938H12.4413V15.3421C12.441 15.9003 12.6241 16.4431 12.9625 16.887C13.3009 17.3309 13.7758 17.6513 14.3142 17.7989C15.7351 18.1882 16.9889 19.0331 17.8831 20.2039C18.7774 21.3748 19.2625 22.8068 19.2641 24.28V26.1118C19.2663 26.6822 19.075 27.2365 18.7213 27.6841C18.4842 27.9793 18.374 28.3565 18.4148 28.7329C18.4556 29.1092 18.6441 29.454 18.9389 29.6916C19.0411 29.7724 19.1236 29.8754 19.1799 29.9929C19.2363 30.1104 19.2651 30.2392 19.2641 30.3695C19.2632 30.4998 19.2325 30.6282 19.1744 30.7448C19.1163 30.8615 19.0323 30.9633 18.9289 31.0426C18.7687 31.161 18.6384 31.3153 18.5485 31.4932C18.4586 31.671 18.4115 31.8674 18.4111 32.0667C18.4108 32.266 18.457 32.4626 18.5462 32.6408C18.6355 32.8189 18.7652 32.9738 18.925 33.0928C19.03 33.1724 19.1153 33.2751 19.1741 33.3931C19.233 33.511 19.2638 33.6409 19.2642 33.7727C19.2646 33.9045 19.2346 34.0346 19.1764 34.1529C19.1183 34.2711 19.0336 34.3744 18.929 34.4546C18.7688 34.573 18.6385 34.7273 18.5485 34.9052C18.4586 35.083 18.4115 35.2794 18.4111 35.4787C18.4107 35.678 18.457 35.8746 18.5462 36.0528C18.6355 36.231 18.7652 36.3858 18.925 36.5049C19.0298 36.584 19.115 36.6863 19.1739 36.8037C19.2329 36.9211 19.2639 37.0506 19.2646 37.182C19.2653 37.3133 19.2357 37.4431 19.1781 37.5612C19.1205 37.6793 19.0365 37.7825 18.9325 37.8628C18.7866 37.9787 18.6651 38.1224 18.5751 38.2855C18.485 38.4486 18.4281 38.6279 18.4077 38.8131C18.3873 38.9984 18.4037 39.1858 18.4561 39.3646C18.5085 39.5434 18.5958 39.7101 18.7129 39.855C19.0717 40.3047 19.2662 40.8634 19.2641 41.4387V49.1215C19.2639 49.3467 19.1743 49.5627 19.015 49.722C18.8557 49.8812 18.6398 49.9708 18.4145 49.9711H3.04909C2.82384 49.9708 2.60788 49.8812 2.4486 49.722C2.28932 49.5627 2.19973 49.3467 2.19948 49.1215V41.4387C2.19714 40.8678 2.3886 40.313 2.74254 39.8651C2.97965 39.5704 3.09003 39.1937 3.04941 38.8176C3.00879 38.4416 2.8205 38.0971 2.52594 37.8599C2.42348 37.7791 2.34084 37.6759 2.28429 37.5583C2.22775 37.4407 2.19881 37.3117 2.19968 37.1813C2.20054 37.0508 2.23119 36.9222 2.28928 36.8053C2.34738 36.6885 2.43138 36.5864 2.5349 36.507C2.69529 36.3883 2.82566 36.2338 2.91555 36.0557C3.00544 35.8776 3.05235 35.6809 3.05252 35.4814C3.05269 35.2819 3.00612 35.0851 2.91654 34.9069C2.82696 34.7286 2.69686 34.5738 2.53667 34.4549C2.43196 34.3752 2.34705 34.2725 2.28854 34.1546C2.23003 34.0367 2.19951 33.907 2.19934 33.7754C2.19916 33.6438 2.22935 33.5139 2.28755 33.3959C2.34575 33.2779 2.4304 33.1749 2.5349 33.0949C2.6953 32.9763 2.82567 32.8217 2.91557 32.6436C3.00547 32.4655 3.05238 32.2689 3.05255 32.0694C3.05272 31.8699 3.00615 31.6731 2.91656 31.4948C2.82697 31.3166 2.69686 31.1618 2.53667 31.0429C2.43244 30.9635 2.34783 30.8613 2.28936 30.744C2.2309 30.6268 2.20014 30.4977 2.19945 30.3667C2.19877 30.2357 2.22818 30.1062 2.28542 29.9884C2.34266 29.8705 2.42619 29.7674 2.52959 29.687C2.67548 29.5709 2.79697 29.4272 2.88708 29.264C2.97719 29.1008 3.03414 28.9214 3.05464 28.7361C3.07514 28.5508 3.0588 28.3633 3.00654 28.1844C2.95429 28.0055 2.86716 27.8386 2.75018 27.6935C2.39137 27.2446 2.19704 26.6864 2.19948 26.1118V24.28C2.1997 23.1965 2.46172 22.129 2.96324 21.1685C3.06787 20.9689 3.08893 20.7359 3.0218 20.5208C2.95466 20.3057 2.80483 20.1261 2.60526 20.0215C2.40569 19.9169 2.17273 19.8958 1.95763 19.9629C1.74253 20.0301 1.56291 20.1799 1.45828 20.3795C0.829452 21.5835 0.500789 22.9217 0.500261 24.28V26.1118C0.49666 26.981 0.763201 27.8299 1.26303 28.541C0.79485 29.0021 0.522096 29.6257 0.501334 30.2824C0.480572 30.9392 0.713395 31.5788 1.15152 32.0685C0.731948 32.5378 0.5 33.1452 0.5 33.7746C0.5 34.4041 0.731948 35.0115 1.15152 35.4808C0.713445 35.9706 0.480681 36.6102 0.501483 37.2671C0.522286 37.9239 0.795059 38.5475 1.26325 39.0086C0.767469 39.7221 0.501279 40.5699 0.500261 41.4387V49.1215C0.501031 49.7972 0.769815 50.4451 1.24765 50.9229C1.72548 51.4007 2.37333 51.6695 3.04909 51.6703H18.4145C19.0903 51.6695 19.7381 51.4007 20.216 50.9229C20.6938 50.4451 20.9626 49.7972 20.9633 49.1215V44.8474H33.7552L34.4172 49.4811C34.506 50.0877 34.8096 50.6422 35.2726 51.0439C35.7357 51.4457 36.3275 51.6679 36.9405 51.6703H51.0509C51.6638 51.668 52.2556 51.4458 52.7186 51.0442C53.1816 50.6426 53.4852 50.0882 53.5742 49.4818L56.5516 28.6404H57.0764C57.4518 28.6399 57.8117 28.4906 58.0772 28.2251C58.3427 27.9597 58.492 27.5998 58.4924 27.2243V24.9454C58.492 24.57 58.3427 24.21 58.0772 23.9446C57.8117 23.6791 57.4518 23.5298 57.0764 23.5294ZM7.31639 12.7249C7.31723 11.9696 7.61762 11.2455 8.15166 10.7115C8.6857 10.1774 9.40977 9.87704 10.165 9.87618H11.2978C12.0531 9.87703 12.7772 10.1774 13.3112 10.7115C13.8453 11.2455 14.1457 11.9696 14.1466 12.7249V13.2946H7.31639V12.7249ZM46.947 15.161C47.0596 15.0789 47.1904 15.0251 47.3282 15.0042C47.466 14.9833 47.6068 14.9959 47.7388 15.0409C49.5733 15.7038 51.2016 16.8367 52.4608 18.3263C53.7201 19.816 54.5662 21.6101 54.9145 23.5294H46.5513V15.4138C46.686 15.336 46.8183 15.2522 46.947 15.161ZM43.1394 23.5294V16.0261C43.7062 16.122 44.2852 16.122 44.8521 16.026V23.5294H43.1394ZM44.3825 9.12675L50.4624 3.04676L51.6732 4.25756L45.5984 10.3324C45.361 10.5684 45.1729 10.8492 45.0448 11.1584C44.9167 11.4677 44.8512 11.7993 44.8521 12.134V14.289C44.2904 14.4344 43.701 14.4343 43.1394 14.2889V12.1306C43.1379 11.5726 43.2469 11.0199 43.4603 10.5043C43.6737 9.98868 43.9871 9.52049 44.3825 9.12675ZM40.2466 15.0429C40.3792 14.9972 40.5209 14.984 40.6598 15.0045C40.7986 15.025 40.9304 15.0786 41.0441 15.1608C41.1729 15.2521 41.3054 15.3359 41.4402 15.4139V23.5294H33.0768C33.425 21.6112 34.2704 19.818 35.5285 18.3288C36.7867 16.8396 38.4135 15.7066 40.2466 15.0429ZM36.0995 49.2414L33.1564 28.6404H41.4402V37.2224C41.4402 37.4477 41.5297 37.6638 41.689 37.8232C41.8483 37.9825 42.0644 38.072 42.2898 38.072C42.5151 38.072 42.7312 37.9825 42.8905 37.8232C43.0499 37.6638 43.1394 37.4477 43.1394 37.2224V28.6404H44.8521V49.9711H43.1394V41.1873C43.1394 40.9619 43.0499 40.7458 42.8905 40.5865C42.7312 40.4272 42.5151 40.3376 42.2898 40.3376C42.0644 40.3376 41.8483 40.4272 41.689 40.5865C41.5297 40.7458 41.4402 40.9619 41.4402 41.1873V49.9711H36.9405C36.7362 49.9704 36.5389 49.8963 36.3846 49.7624C36.2302 49.6285 36.129 49.4436 36.0995 49.2414ZM51.8919 49.2421C51.8622 49.4442 51.761 49.6289 51.6067 49.7627C51.4524 49.8964 51.2552 49.9704 51.0509 49.9711H46.5513V28.6404H54.8351L51.8919 49.2421ZM56.7932 26.9411H31.1983V25.2286H56.7932V26.9411Z"/>
</mask>
<path d="M57.0764 23.5294H56.6357C56.2787 21.2565 55.318 19.1212 53.8537 17.3466C52.3895 15.572 50.4755 14.2233 48.3118 13.4412C47.741 13.2389 47.1169 13.2467 46.5513 13.4632V12.134C46.551 12.0225 46.5728 11.9121 46.6155 11.8091C46.6582 11.7061 46.7208 11.6126 46.7999 11.534L53.0745 5.25931C53.3398 4.99341 53.4888 4.63315 53.4888 4.25755C53.4888 3.88195 53.3398 3.52168 53.0745 3.25579L51.4621 1.64338C51.196 1.37926 50.8362 1.23117 50.4613 1.23146C50.0864 1.23175 49.7268 1.3804 49.4611 1.64493L43.1805 7.92557C42.627 8.47673 42.1882 9.13213 41.8895 9.8539C41.5907 10.5757 41.438 11.3495 41.4402 12.1306V13.4636C41.0172 13.3029 40.5594 13.2567 40.1129 13.3296L38.8433 2.74538C38.7683 2.12656 38.4695 1.55656 38.0031 1.14292C37.5368 0.729286 36.9352 0.500598 36.3119 0.5H34.4008C33.725 0.500771 33.0772 0.769555 32.5993 1.24739C32.1215 1.72522 31.8527 2.37307 31.852 3.04883V5.88426C31.852 6.10959 31.9415 6.32569 32.1008 6.48502C32.2601 6.64435 32.4762 6.73387 32.7016 6.73387C32.9269 6.73387 33.143 6.64435 33.3023 6.48502C33.4617 6.32569 33.5512 6.10959 33.5512 5.88426V3.04883C33.5514 2.82357 33.641 2.60762 33.8003 2.44834C33.9596 2.28906 34.1755 2.19947 34.4008 2.19922H36.3119C36.5198 2.19949 36.7205 2.27583 36.876 2.41383C37.0315 2.55184 37.1312 2.74198 37.1563 2.94841L38.4754 13.9453C36.602 14.8479 34.9755 16.1914 33.7355 17.8607C32.4954 19.53 31.6788 21.4752 31.3557 23.5294H30.9151C30.5396 23.5298 30.1797 23.6791 29.9143 23.9446C29.6488 24.21 29.4995 24.57 29.499 24.9454V27.2243C29.4995 27.5998 29.6488 27.9597 29.9143 28.2251C30.1797 28.4906 30.5396 28.6399 30.9151 28.6404H31.4399L33.5125 43.1482H20.9633V41.4387C20.9621 40.5692 20.6954 39.7208 20.1988 39.007C20.6681 38.547 20.9417 37.9237 20.9627 37.2669C20.9837 36.6102 20.7504 35.9707 20.3115 35.4816C20.7315 35.0126 20.9638 34.4051 20.9638 33.7755C20.9638 33.1459 20.7315 32.5384 20.3115 32.0694C20.7501 31.5798 20.9832 30.9401 20.9625 30.2831C20.9418 29.6261 20.6689 29.0024 20.2004 28.5413C20.7 27.83 20.9666 26.9811 20.9633 26.1118V24.28C20.9611 22.4337 20.3528 20.6392 19.2319 19.1721C18.111 17.7049 16.5395 16.6463 14.7587 16.1589C14.5803 16.1093 14.4232 16.0026 14.3115 15.855C14.1998 15.7074 14.1397 15.5272 14.1405 15.3421V14.9938H14.4298C14.8052 14.9934 15.1651 14.8441 15.4306 14.5786C15.696 14.3132 15.8454 13.9532 15.8458 13.5778V12.7249C15.8446 11.756 15.5345 10.8127 14.9606 10.032C14.3867 9.25131 13.5789 8.67393 12.6545 8.3837L13.3064 2.94794C13.3311 2.74163 13.4305 2.55152 13.5859 2.41356C13.7412 2.2756 13.9418 2.19934 14.1496 2.19922H16.0606C16.2859 2.19947 16.5018 2.28906 16.6611 2.44834C16.8204 2.60762 16.91 2.82357 16.9102 3.04883V11.5914C16.911 12.2671 17.1798 12.915 17.6576 13.3928C18.1354 13.8707 18.7833 14.1394 19.4591 14.1402H31.0023C31.6781 14.1394 32.326 13.8707 32.8038 13.3928C33.2816 12.915 33.5504 12.2671 33.5512 11.5914V9.84911C33.5512 9.62378 33.4617 9.40768 33.3023 9.24834C33.143 9.08901 32.9269 8.9995 32.7016 8.9995C32.4762 8.9995 32.2601 9.08901 32.1008 9.24834C31.9415 9.40768 31.852 9.62378 31.852 9.84911V11.5914C31.8517 11.8166 31.7621 12.0326 31.6028 12.1919C31.4436 12.3512 31.2276 12.4407 31.0023 12.441H19.4591C19.2338 12.4407 19.0178 12.3512 18.8586 12.1919C18.6993 12.0326 18.6097 11.8166 18.6094 11.5914V3.04883C18.6087 2.37308 18.3399 1.72522 17.8621 1.24739C17.3842 0.769557 16.7364 0.500773 16.0606 0.500003H14.1495C13.5261 0.500297 12.9244 0.728992 12.4582 1.14285C11.9919 1.55671 11.6934 2.12705 11.6192 2.74604L10.9679 8.17696H10.165C8.95926 8.17833 7.80329 8.65793 6.9507 9.51053C6.09811 10.3631 5.61853 11.5191 5.61717 12.7249V13.5778C5.6176 13.9532 5.76692 14.3132 6.03238 14.5786C6.29785 14.8441 6.65777 14.9934 7.03319 14.9938H7.32314V15.3421C7.32386 15.5273 7.26366 15.7076 7.15181 15.8553C7.03997 16.0029 6.88268 16.1097 6.70419 16.1591C5.9145 16.3731 5.16074 16.7026 4.46733 17.1369C4.37277 17.1961 4.29079 17.2734 4.22609 17.3643C4.16139 17.4552 4.11522 17.5579 4.09023 17.6667C4.06524 17.7754 4.06191 17.888 4.08043 17.998C4.09895 18.108 4.13896 18.2133 4.19817 18.3079C4.25739 18.4025 4.33465 18.4844 4.42554 18.5491C4.51644 18.6138 4.61918 18.66 4.72792 18.685C4.83665 18.71 4.94925 18.7133 5.05927 18.6948C5.16929 18.6763 5.27459 18.6363 5.36915 18.577C5.9207 18.2316 6.52023 17.9695 7.14835 17.7992C7.6869 17.6518 8.16207 17.3314 8.50068 16.8874C8.8393 16.4435 9.0226 15.9005 9.02236 15.3421V14.9938H12.4413V15.3421C12.441 15.9003 12.6241 16.4431 12.9625 16.887C13.3009 17.3309 13.7758 17.6513 14.3142 17.7989C15.7351 18.1882 16.9889 19.0331 17.8831 20.2039C18.7774 21.3748 19.2625 22.8068 19.2641 24.28V26.1118C19.2663 26.6822 19.075 27.2365 18.7213 27.6841C18.4842 27.9793 18.374 28.3565 18.4148 28.7329C18.4556 29.1092 18.6441 29.454 18.9389 29.6916C19.0411 29.7724 19.1236 29.8754 19.1799 29.9929C19.2363 30.1104 19.2651 30.2392 19.2641 30.3695C19.2632 30.4998 19.2325 30.6282 19.1744 30.7448C19.1163 30.8615 19.0323 30.9633 18.9289 31.0426C18.7687 31.161 18.6384 31.3153 18.5485 31.4932C18.4586 31.671 18.4115 31.8674 18.4111 32.0667C18.4108 32.266 18.457 32.4626 18.5462 32.6408C18.6355 32.8189 18.7652 32.9738 18.925 33.0928C19.03 33.1724 19.1153 33.2751 19.1741 33.3931C19.233 33.511 19.2638 33.6409 19.2642 33.7727C19.2646 33.9045 19.2346 34.0346 19.1764 34.1529C19.1183 34.2711 19.0336 34.3744 18.929 34.4546C18.7688 34.573 18.6385 34.7273 18.5485 34.9052C18.4586 35.083 18.4115 35.2794 18.4111 35.4787C18.4107 35.678 18.457 35.8746 18.5462 36.0528C18.6355 36.231 18.7652 36.3858 18.925 36.5049C19.0298 36.584 19.115 36.6863 19.1739 36.8037C19.2329 36.9211 19.2639 37.0506 19.2646 37.182C19.2653 37.3133 19.2357 37.4431 19.1781 37.5612C19.1205 37.6793 19.0365 37.7825 18.9325 37.8628C18.7866 37.9787 18.6651 38.1224 18.5751 38.2855C18.485 38.4486 18.4281 38.6279 18.4077 38.8131C18.3873 38.9984 18.4037 39.1858 18.4561 39.3646C18.5085 39.5434 18.5958 39.7101 18.7129 39.855C19.0717 40.3047 19.2662 40.8634 19.2641 41.4387V49.1215C19.2639 49.3467 19.1743 49.5627 19.015 49.722C18.8557 49.8812 18.6398 49.9708 18.4145 49.9711H3.04909C2.82384 49.9708 2.60788 49.8812 2.4486 49.722C2.28932 49.5627 2.19973 49.3467 2.19948 49.1215V41.4387C2.19714 40.8678 2.3886 40.313 2.74254 39.8651C2.97965 39.5704 3.09003 39.1937 3.04941 38.8176C3.00879 38.4416 2.8205 38.0971 2.52594 37.8599C2.42348 37.7791 2.34084 37.6759 2.28429 37.5583C2.22775 37.4407 2.19881 37.3117 2.19968 37.1813C2.20054 37.0508 2.23119 36.9222 2.28928 36.8053C2.34738 36.6885 2.43138 36.5864 2.5349 36.507C2.69529 36.3883 2.82566 36.2338 2.91555 36.0557C3.00544 35.8776 3.05235 35.6809 3.05252 35.4814C3.05269 35.2819 3.00612 35.0851 2.91654 34.9069C2.82696 34.7286 2.69686 34.5738 2.53667 34.4549C2.43196 34.3752 2.34705 34.2725 2.28854 34.1546C2.23003 34.0367 2.19951 33.907 2.19934 33.7754C2.19916 33.6438 2.22935 33.5139 2.28755 33.3959C2.34575 33.2779 2.4304 33.1749 2.5349 33.0949C2.6953 32.9763 2.82567 32.8217 2.91557 32.6436C3.00547 32.4655 3.05238 32.2689 3.05255 32.0694C3.05272 31.8699 3.00615 31.6731 2.91656 31.4948C2.82697 31.3166 2.69686 31.1618 2.53667 31.0429C2.43244 30.9635 2.34783 30.8613 2.28936 30.744C2.2309 30.6268 2.20014 30.4977 2.19945 30.3667C2.19877 30.2357 2.22818 30.1062 2.28542 29.9884C2.34266 29.8705 2.42619 29.7674 2.52959 29.687C2.67548 29.5709 2.79697 29.4272 2.88708 29.264C2.97719 29.1008 3.03414 28.9214 3.05464 28.7361C3.07514 28.5508 3.0588 28.3633 3.00654 28.1844C2.95429 28.0055 2.86716 27.8386 2.75018 27.6935C2.39137 27.2446 2.19704 26.6864 2.19948 26.1118V24.28C2.1997 23.1965 2.46172 22.129 2.96324 21.1685C3.06787 20.9689 3.08893 20.7359 3.0218 20.5208C2.95466 20.3057 2.80483 20.1261 2.60526 20.0215C2.40569 19.9169 2.17273 19.8958 1.95763 19.9629C1.74253 20.0301 1.56291 20.1799 1.45828 20.3795C0.829452 21.5835 0.500789 22.9217 0.500261 24.28V26.1118C0.49666 26.981 0.763201 27.8299 1.26303 28.541C0.79485 29.0021 0.522096 29.6257 0.501334 30.2824C0.480572 30.9392 0.713395 31.5788 1.15152 32.0685C0.731948 32.5378 0.5 33.1452 0.5 33.7746C0.5 34.4041 0.731948 35.0115 1.15152 35.4808C0.713445 35.9706 0.480681 36.6102 0.501483 37.2671C0.522286 37.9239 0.795059 38.5475 1.26325 39.0086C0.767469 39.7221 0.501279 40.5699 0.500261 41.4387V49.1215C0.501031 49.7972 0.769815 50.4451 1.24765 50.9229C1.72548 51.4007 2.37333 51.6695 3.04909 51.6703H18.4145C19.0903 51.6695 19.7381 51.4007 20.216 50.9229C20.6938 50.4451 20.9626 49.7972 20.9633 49.1215V44.8474H33.7552L34.4172 49.4811C34.506 50.0877 34.8096 50.6422 35.2726 51.0439C35.7357 51.4457 36.3275 51.6679 36.9405 51.6703H51.0509C51.6638 51.668 52.2556 51.4458 52.7186 51.0442C53.1816 50.6426 53.4852 50.0882 53.5742 49.4818L56.5516 28.6404H57.0764C57.4518 28.6399 57.8117 28.4906 58.0772 28.2251C58.3427 27.9597 58.492 27.5998 58.4924 27.2243V24.9454C58.492 24.57 58.3427 24.21 58.0772 23.9446C57.8117 23.6791 57.4518 23.5298 57.0764 23.5294ZM7.31639 12.7249C7.31723 11.9696 7.61762 11.2455 8.15166 10.7115C8.6857 10.1774 9.40977 9.87704 10.165 9.87618H11.2978C12.0531 9.87703 12.7772 10.1774 13.3112 10.7115C13.8453 11.2455 14.1457 11.9696 14.1466 12.7249V13.2946H7.31639V12.7249ZM46.947 15.161C47.0596 15.0789 47.1904 15.0251 47.3282 15.0042C47.466 14.9833 47.6068 14.9959 47.7388 15.0409C49.5733 15.7038 51.2016 16.8367 52.4608 18.3263C53.7201 19.816 54.5662 21.6101 54.9145 23.5294H46.5513V15.4138C46.686 15.336 46.8183 15.2522 46.947 15.161ZM43.1394 23.5294V16.0261C43.7062 16.122 44.2852 16.122 44.8521 16.026V23.5294H43.1394ZM44.3825 9.12675L50.4624 3.04676L51.6732 4.25756L45.5984 10.3324C45.361 10.5684 45.1729 10.8492 45.0448 11.1584C44.9167 11.4677 44.8512 11.7993 44.8521 12.134V14.289C44.2904 14.4344 43.701 14.4343 43.1394 14.2889V12.1306C43.1379 11.5726 43.2469 11.0199 43.4603 10.5043C43.6737 9.98868 43.9871 9.52049 44.3825 9.12675ZM40.2466 15.0429C40.3792 14.9972 40.5209 14.984 40.6598 15.0045C40.7986 15.025 40.9304 15.0786 41.0441 15.1608C41.1729 15.2521 41.3054 15.3359 41.4402 15.4139V23.5294H33.0768C33.425 21.6112 34.2704 19.818 35.5285 18.3288C36.7867 16.8396 38.4135 15.7066 40.2466 15.0429ZM36.0995 49.2414L33.1564 28.6404H41.4402V37.2224C41.4402 37.4477 41.5297 37.6638 41.689 37.8232C41.8483 37.9825 42.0644 38.072 42.2898 38.072C42.5151 38.072 42.7312 37.9825 42.8905 37.8232C43.0499 37.6638 43.1394 37.4477 43.1394 37.2224V28.6404H44.8521V49.9711H43.1394V41.1873C43.1394 40.9619 43.0499 40.7458 42.8905 40.5865C42.7312 40.4272 42.5151 40.3376 42.2898 40.3376C42.0644 40.3376 41.8483 40.4272 41.689 40.5865C41.5297 40.7458 41.4402 40.9619 41.4402 41.1873V49.9711H36.9405C36.7362 49.9704 36.5389 49.8963 36.3846 49.7624C36.2302 49.6285 36.129 49.4436 36.0995 49.2414ZM51.8919 49.2421C51.8622 49.4442 51.761 49.6289 51.6067 49.7627C51.4524 49.8964 51.2552 49.9704 51.0509 49.9711H46.5513V28.6404H54.8351L51.8919 49.2421ZM56.7932 26.9411H31.1983V25.2286H56.7932V26.9411Z" fill="var(--fill-0, white)"/>
<path d="M57.0764 23.5294H56.6357C56.2787 21.2565 55.318 19.1212 53.8537 17.3466C52.3895 15.572 50.4755 14.2233 48.3118 13.4412C47.741 13.2389 47.1169 13.2467 46.5513 13.4632V12.134C46.551 12.0225 46.5728 11.9121 46.6155 11.8091C46.6582 11.7061 46.7208 11.6126 46.7999 11.534L53.0745 5.25931C53.3398 4.99341 53.4888 4.63315 53.4888 4.25755C53.4888 3.88195 53.3398 3.52168 53.0745 3.25579L51.4621 1.64338C51.196 1.37926 50.8362 1.23117 50.4613 1.23146C50.0864 1.23175 49.7268 1.3804 49.4611 1.64493L43.1805 7.92557C42.627 8.47673 42.1882 9.13213 41.8895 9.8539C41.5907 10.5757 41.438 11.3495 41.4402 12.1306V13.4636C41.0172 13.3029 40.5594 13.2567 40.1129 13.3296L38.8433 2.74538C38.7683 2.12656 38.4695 1.55656 38.0031 1.14292C37.5368 0.729286 36.9352 0.500598 36.3119 0.5H34.4008C33.725 0.500771 33.0772 0.769555 32.5993 1.24739C32.1215 1.72522 31.8527 2.37307 31.852 3.04883V5.88426C31.852 6.10959 31.9415 6.32569 32.1008 6.48502C32.2601 6.64435 32.4762 6.73387 32.7016 6.73387C32.9269 6.73387 33.143 6.64435 33.3023 6.48502C33.4617 6.32569 33.5512 6.10959 33.5512 5.88426V3.04883C33.5514 2.82357 33.641 2.60762 33.8003 2.44834C33.9596 2.28906 34.1755 2.19947 34.4008 2.19922H36.3119C36.5198 2.19949 36.7205 2.27583 36.876 2.41383C37.0315 2.55184 37.1312 2.74198 37.1563 2.94841L38.4754 13.9453C36.602 14.8479 34.9755 16.1914 33.7355 17.8607C32.4954 19.53 31.6788 21.4752 31.3557 23.5294H30.9151C30.5396 23.5298 30.1797 23.6791 29.9143 23.9446C29.6488 24.21 29.4995 24.57 29.499 24.9454V27.2243C29.4995 27.5998 29.6488 27.9597 29.9143 28.2251C30.1797 28.4906 30.5396 28.6399 30.9151 28.6404H31.4399L33.5125 43.1482H20.9633V41.4387C20.9621 40.5692 20.6954 39.7208 20.1988 39.007C20.6681 38.547 20.9417 37.9237 20.9627 37.2669C20.9837 36.6102 20.7504 35.9707 20.3115 35.4816C20.7315 35.0126 20.9638 34.4051 20.9638 33.7755C20.9638 33.1459 20.7315 32.5384 20.3115 32.0694C20.7501 31.5798 20.9832 30.9401 20.9625 30.2831C20.9418 29.6261 20.6689 29.0024 20.2004 28.5413C20.7 27.83 20.9666 26.9811 20.9633 26.1118V24.28C20.9611 22.4337 20.3528 20.6392 19.2319 19.1721C18.111 17.7049 16.5395 16.6463 14.7587 16.1589C14.5803 16.1093 14.4232 16.0026 14.3115 15.855C14.1998 15.7074 14.1397 15.5272 14.1405 15.3421V14.9938H14.4298C14.8052 14.9934 15.1651 14.8441 15.4306 14.5786C15.696 14.3132 15.8454 13.9532 15.8458 13.5778V12.7249C15.8446 11.756 15.5345 10.8127 14.9606 10.032C14.3867 9.25131 13.5789 8.67393 12.6545 8.3837L13.3064 2.94794C13.3311 2.74163 13.4305 2.55152 13.5859 2.41356C13.7412 2.2756 13.9418 2.19934 14.1496 2.19922H16.0606C16.2859 2.19947 16.5018 2.28906 16.6611 2.44834C16.8204 2.60762 16.91 2.82357 16.9102 3.04883V11.5914C16.911 12.2671 17.1798 12.915 17.6576 13.3928C18.1354 13.8707 18.7833 14.1394 19.4591 14.1402H31.0023C31.6781 14.1394 32.326 13.8707 32.8038 13.3928C33.2816 12.915 33.5504 12.2671 33.5512 11.5914V9.84911C33.5512 9.62378 33.4617 9.40768 33.3023 9.24834C33.143 9.08901 32.9269 8.9995 32.7016 8.9995C32.4762 8.9995 32.2601 9.08901 32.1008 9.24834C31.9415 9.40768 31.852 9.62378 31.852 9.84911V11.5914C31.8517 11.8166 31.7621 12.0326 31.6028 12.1919C31.4436 12.3512 31.2276 12.4407 31.0023 12.441H19.4591C19.2338 12.4407 19.0178 12.3512 18.8586 12.1919C18.6993 12.0326 18.6097 11.8166 18.6094 11.5914V3.04883C18.6087 2.37308 18.3399 1.72522 17.8621 1.24739C17.3842 0.769557 16.7364 0.500773 16.0606 0.500003H14.1495C13.5261 0.500297 12.9244 0.728992 12.4582 1.14285C11.9919 1.55671 11.6934 2.12705 11.6192 2.74604L10.9679 8.17696H10.165C8.95926 8.17833 7.80329 8.65793 6.9507 9.51053C6.09811 10.3631 5.61853 11.5191 5.61717 12.7249V13.5778C5.6176 13.9532 5.76692 14.3132 6.03238 14.5786C6.29785 14.8441 6.65777 14.9934 7.03319 14.9938H7.32314V15.3421C7.32386 15.5273 7.26366 15.7076 7.15181 15.8553C7.03997 16.0029 6.88268 16.1097 6.70419 16.1591C5.9145 16.3731 5.16074 16.7026 4.46733 17.1369C4.37277 17.1961 4.29079 17.2734 4.22609 17.3643C4.16139 17.4552 4.11522 17.5579 4.09023 17.6667C4.06524 17.7754 4.06191 17.888 4.08043 17.998C4.09895 18.108 4.13896 18.2133 4.19817 18.3079C4.25739 18.4025 4.33465 18.4844 4.42554 18.5491C4.51644 18.6138 4.61918 18.66 4.72792 18.685C4.83665 18.71 4.94925 18.7133 5.05927 18.6948C5.16929 18.6763 5.27459 18.6363 5.36915 18.577C5.9207 18.2316 6.52023 17.9695 7.14835 17.7992C7.6869 17.6518 8.16207 17.3314 8.50068 16.8874C8.8393 16.4435 9.0226 15.9005 9.02236 15.3421V14.9938H12.4413V15.3421C12.441 15.9003 12.6241 16.4431 12.9625 16.887C13.3009 17.3309 13.7758 17.6513 14.3142 17.7989C15.7351 18.1882 16.9889 19.0331 17.8831 20.2039C18.7774 21.3748 19.2625 22.8068 19.2641 24.28V26.1118C19.2663 26.6822 19.075 27.2365 18.7213 27.6841C18.4842 27.9793 18.374 28.3565 18.4148 28.7329C18.4556 29.1092 18.6441 29.454 18.9389 29.6916C19.0411 29.7724 19.1236 29.8754 19.1799 29.9929C19.2363 30.1104 19.2651 30.2392 19.2641 30.3695C19.2632 30.4998 19.2325 30.6282 19.1744 30.7448C19.1163 30.8615 19.0323 30.9633 18.9289 31.0426C18.7687 31.161 18.6384 31.3153 18.5485 31.4932C18.4586 31.671 18.4115 31.8674 18.4111 32.0667C18.4108 32.266 18.457 32.4626 18.5462 32.6408C18.6355 32.8189 18.7652 32.9738 18.925 33.0928C19.03 33.1724 19.1153 33.2751 19.1741 33.3931C19.233 33.511 19.2638 33.6409 19.2642 33.7727C19.2646 33.9045 19.2346 34.0346 19.1764 34.1529C19.1183 34.2711 19.0336 34.3744 18.929 34.4546C18.7688 34.573 18.6385 34.7273 18.5485 34.9052C18.4586 35.083 18.4115 35.2794 18.4111 35.4787C18.4107 35.678 18.457 35.8746 18.5462 36.0528C18.6355 36.231 18.7652 36.3858 18.925 36.5049C19.0298 36.584 19.115 36.6863 19.1739 36.8037C19.2329 36.9211 19.2639 37.0506 19.2646 37.182C19.2653 37.3133 19.2357 37.4431 19.1781 37.5612C19.1205 37.6793 19.0365 37.7825 18.9325 37.8628C18.7866 37.9787 18.6651 38.1224 18.5751 38.2855C18.485 38.4486 18.4281 38.6279 18.4077 38.8131C18.3873 38.9984 18.4037 39.1858 18.4561 39.3646C18.5085 39.5434 18.5958 39.7101 18.7129 39.855C19.0717 40.3047 19.2662 40.8634 19.2641 41.4387V49.1215C19.2639 49.3467 19.1743 49.5627 19.015 49.722C18.8557 49.8812 18.6398 49.9708 18.4145 49.9711H3.04909C2.82384 49.9708 2.60788 49.8812 2.4486 49.722C2.28932 49.5627 2.19973 49.3467 2.19948 49.1215V41.4387C2.19714 40.8678 2.3886 40.313 2.74254 39.8651C2.97965 39.5704 3.09003 39.1937 3.04941 38.8176C3.00879 38.4416 2.8205 38.0971 2.52594 37.8599C2.42348 37.7791 2.34084 37.6759 2.28429 37.5583C2.22775 37.4407 2.19881 37.3117 2.19968 37.1813C2.20054 37.0508 2.23119 36.9222 2.28928 36.8053C2.34738 36.6885 2.43138 36.5864 2.5349 36.507C2.69529 36.3883 2.82566 36.2338 2.91555 36.0557C3.00544 35.8776 3.05235 35.6809 3.05252 35.4814C3.05269 35.2819 3.00612 35.0851 2.91654 34.9069C2.82696 34.7286 2.69686 34.5738 2.53667 34.4549C2.43196 34.3752 2.34705 34.2725 2.28854 34.1546C2.23003 34.0367 2.19951 33.907 2.19934 33.7754C2.19916 33.6438 2.22935 33.5139 2.28755 33.3959C2.34575 33.2779 2.4304 33.1749 2.5349 33.0949C2.6953 32.9763 2.82567 32.8217 2.91557 32.6436C3.00547 32.4655 3.05238 32.2689 3.05255 32.0694C3.05272 31.8699 3.00615 31.6731 2.91656 31.4948C2.82697 31.3166 2.69686 31.1618 2.53667 31.0429C2.43244 30.9635 2.34783 30.8613 2.28936 30.744C2.2309 30.6268 2.20014 30.4977 2.19945 30.3667C2.19877 30.2357 2.22818 30.1062 2.28542 29.9884C2.34266 29.8705 2.42619 29.7674 2.52959 29.687C2.67548 29.5709 2.79697 29.4272 2.88708 29.264C2.97719 29.1008 3.03414 28.9214 3.05464 28.7361C3.07514 28.5508 3.0588 28.3633 3.00654 28.1844C2.95429 28.0055 2.86716 27.8386 2.75018 27.6935C2.39137 27.2446 2.19704 26.6864 2.19948 26.1118V24.28C2.1997 23.1965 2.46172 22.129 2.96324 21.1685C3.06787 20.9689 3.08893 20.7359 3.0218 20.5208C2.95466 20.3057 2.80483 20.1261 2.60526 20.0215C2.40569 19.9169 2.17273 19.8958 1.95763 19.9629C1.74253 20.0301 1.56291 20.1799 1.45828 20.3795C0.829452 21.5835 0.500789 22.9217 0.500261 24.28V26.1118C0.49666 26.981 0.763201 27.8299 1.26303 28.541C0.79485 29.0021 0.522096 29.6257 0.501334 30.2824C0.480572 30.9392 0.713395 31.5788 1.15152 32.0685C0.731948 32.5378 0.5 33.1452 0.5 33.7746C0.5 34.4041 0.731948 35.0115 1.15152 35.4808C0.713445 35.9706 0.480681 36.6102 0.501483 37.2671C0.522286 37.9239 0.795059 38.5475 1.26325 39.0086C0.767469 39.7221 0.501279 40.5699 0.500261 41.4387V49.1215C0.501031 49.7972 0.769815 50.4451 1.24765 50.9229C1.72548 51.4007 2.37333 51.6695 3.04909 51.6703H18.4145C19.0903 51.6695 19.7381 51.4007 20.216 50.9229C20.6938 50.4451 20.9626 49.7972 20.9633 49.1215V44.8474H33.7552L34.4172 49.4811C34.506 50.0877 34.8096 50.6422 35.2726 51.0439C35.7357 51.4457 36.3275 51.6679 36.9405 51.6703H51.0509C51.6638 51.668 52.2556 51.4458 52.7186 51.0442C53.1816 50.6426 53.4852 50.0882 53.5742 49.4818L56.5516 28.6404H57.0764C57.4518 28.6399 57.8117 28.4906 58.0772 28.2251C58.3427 27.9597 58.492 27.5998 58.4924 27.2243V24.9454C58.492 24.57 58.3427 24.21 58.0772 23.9446C57.8117 23.6791 57.4518 23.5298 57.0764 23.5294ZM7.31639 12.7249C7.31723 11.9696 7.61762 11.2455 8.15166 10.7115C8.6857 10.1774 9.40977 9.87704 10.165 9.87618H11.2978C12.0531 9.87703 12.7772 10.1774 13.3112 10.7115C13.8453 11.2455 14.1457 11.9696 14.1466 12.7249V13.2946H7.31639V12.7249ZM46.947 15.161C47.0596 15.0789 47.1904 15.0251 47.3282 15.0042C47.466 14.9833 47.6068 14.9959 47.7388 15.0409C49.5733 15.7038 51.2016 16.8367 52.4608 18.3263C53.7201 19.816 54.5662 21.6101 54.9145 23.5294H46.5513V15.4138C46.686 15.336 46.8183 15.2522 46.947 15.161ZM43.1394 23.5294V16.0261C43.7062 16.122 44.2852 16.122 44.8521 16.026V23.5294H43.1394ZM44.3825 9.12675L50.4624 3.04676L51.6732 4.25756L45.5984 10.3324C45.361 10.5684 45.1729 10.8492 45.0448 11.1584C44.9167 11.4677 44.8512 11.7993 44.8521 12.134V14.289C44.2904 14.4344 43.701 14.4343 43.1394 14.2889V12.1306C43.1379 11.5726 43.2469 11.0199 43.4603 10.5043C43.6737 9.98868 43.9871 9.52049 44.3825 9.12675ZM40.2466 15.0429C40.3792 14.9972 40.5209 14.984 40.6598 15.0045C40.7986 15.025 40.9304 15.0786 41.0441 15.1608C41.1729 15.2521 41.3054 15.3359 41.4402 15.4139V23.5294H33.0768C33.425 21.6112 34.2704 19.818 35.5285 18.3288C36.7867 16.8396 38.4135 15.7066 40.2466 15.0429ZM36.0995 49.2414L33.1564 28.6404H41.4402V37.2224C41.4402 37.4477 41.5297 37.6638 41.689 37.8232C41.8483 37.9825 42.0644 38.072 42.2898 38.072C42.5151 38.072 42.7312 37.9825 42.8905 37.8232C43.0499 37.6638 43.1394 37.4477 43.1394 37.2224V28.6404H44.8521V49.9711H43.1394V41.1873C43.1394 40.9619 43.0499 40.7458 42.8905 40.5865C42.7312 40.4272 42.5151 40.3376 42.2898 40.3376C42.0644 40.3376 41.8483 40.4272 41.689 40.5865C41.5297 40.7458 41.4402 40.9619 41.4402 41.1873V49.9711H36.9405C36.7362 49.9704 36.5389 49.8963 36.3846 49.7624C36.2302 49.6285 36.129 49.4436 36.0995 49.2414ZM51.8919 49.2421C51.8622 49.4442 51.761 49.6289 51.6067 49.7627C51.4524 49.8964 51.2552 49.9704 51.0509 49.9711H46.5513V28.6404H54.8351L51.8919 49.2421ZM56.7932 26.9411H31.1983V25.2286H56.7932V26.9411Z" stroke="var(--stroke-0, white)" mask="url(#path-1-outside-1_0_14)"/>
</g>
</g>
</svg>
