<svg preserveAspectRatio="xMidYMid meet" width="1em" height="1em" overflow="visible" style="display: block;" viewBox="0 0 51 51" fill="none" xmlns="http://www.w3.org/2000/svg">
<g id="Filme Strech" clip-path="url(#clip0_0_16)">
<path id="Vector" d="M40.541 36.0586C38.0694 36.0586 36.0586 38.0694 36.0586 40.541C36.0586 43.0126 38.0694 45.0234 40.541 45.0234C43.0126 45.0234 45.0234 43.0126 45.0234 40.541C45.0234 38.0694 43.0126 36.0586 40.541 36.0586ZM40.541 42.0352C39.7171 42.0352 39.0469 41.3649 39.0469 40.541C39.0469 39.7171 39.7171 39.0469 40.541 39.0469C41.3649 39.0469 42.0352 39.7171 42.0352 40.541C42.0352 41.3649 41.3649 42.0352 40.541 42.0352Z" fill="var(--fill-0, white)"/>
<path id="Vector_2" d="M40.541 0C34.7739 0 30.082 4.6919 30.082 10.459V11.9531H11.9531V5.97656H5.97656C2.68109 5.97656 0 8.65765 0 11.9531V45.0234C0 48.3189 2.68109 51 5.97656 51H40.541C46.3081 51 51 46.3081 51 40.541V10.459C51 4.6919 46.3081 0 40.541 0ZM2.98828 11.9531C2.98828 10.3054 4.32882 8.96484 5.97656 8.96484H8.96484V39.0469H5.97656C4.88883 39.0469 3.86783 39.339 2.98828 39.8489V11.9531ZM5.97656 48.0117C4.32882 48.0117 2.98828 46.6712 2.98828 45.0234C2.98828 43.3757 4.32882 42.0352 5.97656 42.0352H11.9531V14.9414H30.082V40.541C30.082 43.4649 31.2886 46.1119 33.2293 48.0117C31.9532 48.0117 7.18243 48.0117 5.97656 48.0117ZM40.541 48.0117C36.4217 48.0117 33.0703 44.6604 33.0703 40.541C33.0703 36.4217 36.4217 33.0703 40.541 33.0703C44.6604 33.0703 48.0117 36.4217 48.0117 40.541C48.0117 44.6604 44.6604 48.0117 40.541 48.0117ZM40.541 30.082C37.6171 30.082 34.9702 31.2886 33.0703 33.2293V10.459C33.0703 6.33964 36.4217 2.98828 40.541 2.98828C44.6604 2.98828 48.0117 6.33964 48.0117 10.459V33.2293C46.1119 31.2886 43.4649 30.082 40.541 30.082Z" fill="var(--fill-0, white)"/>
</g>
<defs>
<clipPath id="clip0_0_16">
<rect width="51" height="51" fill="white"/>
</clipPath>
</defs>
</svg>
