<svg preserveAspectRatio="xMidYMid meet" width="1em" height="1em" overflow="visible" style="display: block;" viewBox="0 0 73 73" fill="none" xmlns="http://www.w3.org/2000/svg">
<g id="tampa cosmetico">
<path id="Vector" d="M56.5619 5.58333C58.3721 5.58333 59.8431 7.05565 59.8431 8.86556V15.638C59.843 17.4478 58.372 18.9202 56.5619 18.9202H54.7103V22.9427C57.6633 23.747 59.8429 26.4482 59.8431 29.6546V60.4574C59.8431 64.2949 56.7212 67.4163 52.8841 67.4163H20.1166C16.2784 67.4163 13.1566 64.295 13.1566 60.4574V29.6546C13.1568 26.4482 15.3367 23.7469 18.2904 22.9427V18.9202H16.4388C14.6292 18.92 13.1567 17.448 13.1566 15.638V8.86556C13.1566 7.05551 14.6291 5.58356 16.4388 5.58333H56.5619ZM20.1166 26.1292C18.1722 26.1292 16.5904 27.711 16.5902 29.6546V60.4574C16.5902 62.4012 18.172 63.9837 20.1166 63.9837H52.8841C54.8274 63.9837 56.4105 62.4013 56.4105 60.4574V29.6546C56.4103 27.7109 54.8273 26.1292 52.8841 26.1292H20.1166ZM21.724 22.6956H51.2777V18.9202H21.724V22.6956ZM16.5902 15.4867H56.4105V9.01693H16.5902V15.4867Z" fill="var(--fill-0, white)" stroke="var(--stroke-0, white)"/>
</g>
</svg>
