<svg preserveAspectRatio="xMidYMid meet" width="1em" height="1em" overflow="visible" style="display: block;" viewBox="0 0 54.9998 55" fill="none" xmlns="http://www.w3.org/2000/svg">
<g id="Group">
<path id="Vector" d="M0 27.6999C0 40.4868 15.5546 46.8803 24.5927 37.8422L36.953 25.482L38.3918 26.9208C39.0211 27.5501 40.0411 27.5501 40.6705 26.9208C41.2998 26.2916 41.2998 25.2713 40.6705 24.6421L40.0074 23.9789L43.2048 20.2522C44.2482 22.5112 44.7947 24.9789 44.7947 27.5001C44.7947 37.0364 37.0363 44.795 27.4999 44.795H21.4843C20.5944 44.795 19.873 45.5164 19.873 46.4063C19.873 47.2962 20.5944 48.0176 21.4843 48.0176H27.4999C38.8133 48.0176 48.0174 38.8134 48.0174 27.5001C48.0174 24.0205 47.1418 20.6242 45.4765 17.6044L48.0463 14.6094C50.4929 18.4739 51.7771 22.891 51.7771 27.5001C51.7771 40.8866 40.8864 51.7774 27.4999 51.7774H21.4843C20.5944 51.7774 19.873 52.4988 19.873 53.3887C19.873 54.2786 20.5944 55 21.4843 55H27.4999C42.6412 55 54.9998 42.6422 54.9998 27.5001C54.9998 21.9443 53.3537 16.6359 50.2287 12.0657L54.6113 6.95758C55.1597 6.31831 55.1234 5.36452 54.5278 4.76898L50.2309 0.472117C49.6354 -0.123535 48.6816 -0.159736 48.0423 0.388651L42.9341 4.77145C38.2056 1.5387 32.8559 0 27.5027 0C12.2163 0 0 12.8055 0 27.6999ZM51.1934 5.99218C39.5744 19.5343 49.4215 8.05725 37.7219 21.6934L33.3064 17.278C48.3669 4.35648 43.2305 8.76344 49.0078 3.80659L51.1934 5.99218ZM29.518 18.047L16.8162 30.7489C14.3763 33.1887 10.205 31.4562 10.205 28.0093C10.205 18.0308 17.798 10.2104 27.4911 10.2053C30.0573 10.2053 32.5184 10.7659 34.7476 11.7954L31.0212 14.9927L30.3581 14.3296C29.7289 13.7004 28.7086 13.7004 28.0793 14.3296C27.45 14.9588 27.45 15.979 28.0793 16.6083L29.518 18.047ZM3.22264 27.6999C3.22264 14.4395 14.1318 3.22264 27.5029 3.22264C32.1041 3.22264 36.5252 4.5074 40.3905 6.95393L37.3956 9.52356C34.3745 7.8582 30.9786 6.98261 27.5012 6.98261C16.3507 6.98261 6.9825 15.9669 6.9825 28.0093C6.9825 34.3299 14.6201 37.5024 19.095 33.0276L31.7969 20.3257L34.6744 23.2032L22.314 35.5635C15.2972 42.5798 3.22264 37.6023 3.22264 27.6999Z" fill="var(--fill-0, white)"/>
</g>
</svg>
