<svg preserveAspectRatio="xMidYMid meet" width="1em" height="1em" overflow="visible" style="display: block;" viewBox="0 0 53.1711 53.1719" fill="none" xmlns="http://www.w3.org/2000/svg">
<g id="perfil pvc">
<path id="Vector" d="M27.1855 0.6875C27.7684 0.104639 28.716 0.104639 29.2988 0.6875H29.2998C29.8786 1.27021 29.8786 2.21417 29.2998 2.79688H29.2988L5.34473 26.75H27.624L50.373 4C50.9559 3.41714 51.9035 3.41714 52.4863 4H52.4873C53.0661 4.58271 53.0661 5.52667 52.4873 6.10938H52.4863L29.7344 28.8613V31.2637L50.373 10.625C50.9559 10.0421 51.9035 10.0421 52.4863 10.625H52.4873C53.0661 11.2077 53.0661 12.1517 52.4873 12.7344H52.4863L29.2979 35.9229C29.0111 36.2076 28.6307 36.3594 28.2422 36.3594C28.0479 36.3594 27.8576 36.3221 27.6729 36.2471L27.6709 36.2461C27.1981 36.0494 26.8636 35.6263 26.7744 35.1318L26.4219 35.4854V37.5605L29.2988 40.4375L29.3984 40.5469C29.6158 40.8126 29.7344 41.1462 29.7344 41.4922V47.8262L50.373 27.1875C50.9559 26.6046 51.9035 26.6046 52.4863 27.1875H52.4873C53.0661 27.7702 53.0661 28.7142 52.4873 29.2969H52.4863L29.2646 52.5186L29.2539 52.5225C28.9882 52.7685 28.6337 52.9219 28.2422 52.9219H1.74219C0.918325 52.9219 0.25 52.2535 0.25 51.4297V41.4922C0.25 41.0967 0.405361 40.7178 0.685547 40.4375L3.5625 37.5605V34.8672C3.5625 34.4717 3.71786 34.0928 3.99805 33.8125L8.07617 29.7344H3.23438V34.8672C3.23438 35.691 2.56605 36.3594 1.74219 36.3594C0.918325 36.3594 0.25 35.691 0.25 34.8672V28.2422C0.25 27.8467 0.405361 27.4678 0.685547 27.1875L27.1855 0.6875ZM5.3457 49.9375H26.75V42.1104L23.873 39.2344C23.5929 38.9541 23.4375 38.5752 23.4375 38.1797V34.8672C23.4375 34.4717 23.5929 34.0928 23.873 33.8125L26.75 30.9355V29.7344H25.5488L5.3457 49.9375ZM6.54688 35.4854V38.1797C6.54688 38.5257 6.42828 38.8593 6.21094 39.125L6.11133 39.2344L3.23438 42.1104V47.8262L21.3262 29.7344H12.2988L6.54688 35.4854Z" fill="var(--fill-0, white)" stroke="var(--stroke-0, white)" stroke-width="0.5"/>
</g>
</svg>
