<svg preserveAspectRatio="xMidYMid meet" width="1em" height="1em" overflow="visible" style="display: block;" viewBox="0 0 58 58" fill="none" xmlns="http://www.w3.org/2000/svg">
<g id="Group">
<path id="Vector" d="M37.4995 23.7556V13.5938H27.2455V8.49609C27.2455 3.81135 23.4342 0 18.7494 0C14.0647 0 10.2533 3.81135 10.2533 8.49609V13.5938H0V58H58V23.7556H37.4995ZM54.6016 47.8047H30.5917V27.1541H35.7998V33.158C35.7998 36.9058 38.8489 39.9549 42.5967 39.9549C46.3445 39.9549 49.3936 36.9058 49.3936 33.158V27.1541H54.6016V47.8047ZM39.1981 27.1541H45.995V33.158C45.995 35.0319 44.4705 36.5564 42.5966 36.5564C40.7227 36.5564 39.1981 35.0319 39.1981 33.158V27.1541ZM13.6519 8.49609C13.6519 5.68525 15.9387 3.39844 18.7495 3.39844C21.5604 3.39844 23.8472 5.68525 23.8472 8.49609V13.5938H13.6519V8.49609ZM34.1011 16.9922V23.7556H27.1933V44.4062H3.39844V16.9922H34.1011ZM3.39844 54.6016V47.8047H27.1933V54.6016H3.39844ZM30.5917 54.6016V51.2031H54.6016V54.6016H30.5917Z" fill="var(--fill-0, white)"/>
</g>
</svg>
