<svg preserveAspectRatio="xMidYMid meet" width="1em" height="1em" overflow="visible" style="display: block;" viewBox="0 0 37.6754 65" fill="none" xmlns="http://www.w3.org/2000/svg">
<g id="Group">
<path id="Vector" d="M31.94 17.4479V9.55882H26.2047V3.82353H30.0282V0C28.9957 0 5.57598 0 4.38342 0L0 4.38355L2.70362 7.08717L5.96726 3.82353H14.7342V9.55882H8.99893V17.4479C5.70445 18.2989 3.26364 21.2963 3.26364 24.8529V65H37.6754V24.8529C37.6753 21.2963 35.2346 18.2989 31.94 17.4479ZM18.5576 3.82353H22.3812V9.55882H18.5576V3.82353ZM28.1165 13.3824V17.2059H12.8223V13.3824H28.1165ZM10.9106 21.0294H30.0282C32.1365 21.0294 33.8517 22.7446 33.8517 24.8529V45.8824H7.08704V24.8529C7.08704 22.7446 8.80227 21.0294 10.9106 21.0294ZM33.8517 49.7059V53.5294H7.08704V49.7059H33.8517ZM7.08704 61.1765V57.3529H33.8517V61.1765H7.08704Z" fill="var(--fill-0, white)"/>
<path id="Vector_2" d="M20.4694 42.0588C24.686 42.0588 28.1165 38.6284 28.1165 34.4118C28.1165 30.5081 23.1661 26.5149 20.4694 24.3389C17.8365 26.4634 12.8223 30.4567 12.8223 34.4118C12.8223 38.6284 16.2528 42.0588 20.4694 42.0588ZM20.4694 29.2616C22.4783 31.0678 24.2929 33.2972 24.2929 34.4118C24.2929 36.5201 22.5777 38.2353 20.4694 38.2353C18.3611 38.2353 16.6459 36.5201 16.6459 34.4118C16.6459 33.2971 18.4609 31.0676 20.4694 29.2616Z" fill="var(--fill-0, white)"/>
</g>
</svg>
